# MagicaVoxel @ Ephtracy

# group
o 

# material
mtllib Flint.mtl
usemtl palette

# normals
vn -1 0 0
vn 1 0 0
vn 0 0 1
vn 0 0 -1
vn 0 -1 0
vn 0 1 0

# texcoords
vt 0.501953 0.5
vt 0.505859 0.5
vt 0.533203 0.5
vt 0.591797 0.5

# verts
v -0.6 0.6 0
v -0.6 0.6 -0.1
v -0.6 0.9 0
v -0.6 0.9 -0.1
v -0.5 0.5 0
v -0.5 0.5 -0.1
v -0.5 0.6 0
v -0.5 0.6 -0.1
v -0.5 0.9 0
v -0.5 0.9 -0.1
v -0.5 1.1 0
v -0.5 1.1 -0.1
v -0.4 1.1 0
v -0.4 1.1 -0.1
v -0.4 1.2 0
v -0.4 1.2 -0.1
v -0.3 1.2 0
v -0.3 1.2 -0.1
v -0.3 1.3 0
v -0.3 1.3 -0.1
v -0.2 1.3 0
v -0.2 1.3 -0.1
v -0.2 1.4 0
v -0.2 1.4 -0.1
v -0.1 1.4 0
v -0.1 1.4 -0.1
v -0.1 1.5 0
v -0.1 1.5 -0.1
v 0.3 0.5 0
v 0.3 0.5 -0.1
v 0.3 0.6 0
v 0.3 0.6 -0.1
v 0.5 0.6 0
v 0.5 0.6 -0.1
v 0.5 1.5 0
v 0.5 1.5 -0.1
v -0.6 0.6 0
v -0.6 0.9 0
v -0.5 0.5 0
v -0.5 0.6 0
v -0.5 0.7 0
v -0.5 0.9 0
v -0.5 1.1 0
v -0.4 0.7 0
v -0.4 0.8 0
v -0.4 0.9 0
v -0.4 1.1 0
v -0.4 1.2 0
v -0.3 0.5 0
v -0.3 0.6 0
v -0.3 0.7 0
v -0.3 0.8 0
v -0.3 0.9 0
v -0.3 1.1 0
v -0.3 1.2 0
v -0.3 1.3 0
v -0.2 0.5 0
v -0.2 0.6 0
v -0.2 1.2 0
v -0.2 1.3 0
v -0.2 1.4 0
v -0.1 0.6 0
v -0.1 0.7 0
v -0.1 0.8 0
v -0.1 0.9 0
v -0.1 1.1 0
v -0.1 1.3 0
v -0.1 1.4 0
v -0.1 1.5 0
v 0 0.6 0
v 0 0.7 0
v 0 1.2 0
v 0 1.3 0
v 0.1 0.7 0
v 0.1 0.8 0
v 0.1 0.9 0
v 0.1 1 0
v 0.1 1.1 0
v 0.1 1.2 0
v 0.1 1.3 0
v 0.1 1.4 0
v 0.2 0.7 0
v 0.2 0.8 0
v 0.2 0.9 0
v 0.2 1 0
v 0.2 1.1 0
v 0.3 0.5 0
v 0.3 0.6 0
v 0.3 0.7 0
v 0.3 1.1 0
v 0.3 1.4 0
v 0.4 0.7 0
v 0.4 1.4 0
v 0.5 0.6 0
v 0.5 1.5 0
v -0.6 0.6 -0.1
v -0.6 0.9 -0.1
v -0.5 0.5 -0.1
v -0.5 0.6 -0.1
v -0.5 0.7 -0.1
v -0.5 0.9 -0.1
v -0.5 1.1 -0.1
v -0.4 0.7 -0.1
v -0.4 0.8 -0.1
v -0.4 0.9 -0.1
v -0.4 1.1 -0.1
v -0.4 1.2 -0.1
v -0.3 0.5 -0.1
v -0.3 0.6 -0.1
v -0.3 0.7 -0.1
v -0.3 0.8 -0.1
v -0.3 0.9 -0.1
v -0.3 1.1 -0.1
v -0.3 1.2 -0.1
v -0.3 1.3 -0.1
v -0.2 0.5 -0.1
v -0.2 0.6 -0.1
v -0.2 1.2 -0.1
v -0.2 1.3 -0.1
v -0.2 1.4 -0.1
v -0.1 0.6 -0.1
v -0.1 0.7 -0.1
v -0.1 0.8 -0.1
v -0.1 0.9 -0.1
v -0.1 1.1 -0.1
v -0.1 1.3 -0.1
v -0.1 1.4 -0.1
v -0.1 1.5 -0.1
v 0 0.6 -0.1
v 0 0.7 -0.1
v 0 1.2 -0.1
v 0 1.3 -0.1
v 0.1 0.7 -0.1
v 0.1 0.8 -0.1
v 0.1 0.9 -0.1
v 0.1 1 -0.1
v 0.1 1.1 -0.1
v 0.1 1.2 -0.1
v 0.1 1.3 -0.1
v 0.1 1.4 -0.1
v 0.2 0.7 -0.1
v 0.2 0.8 -0.1
v 0.2 0.9 -0.1
v 0.2 1 -0.1
v 0.2 1.1 -0.1
v 0.3 0.5 -0.1
v 0.3 0.6 -0.1
v 0.3 0.7 -0.1
v 0.3 1.1 -0.1
v 0.3 1.4 -0.1
v 0.4 0.7 -0.1
v 0.4 1.4 -0.1
v 0.5 0.6 -0.1
v 0.5 1.5 -0.1
v -0.5 0.5 0
v -0.3 0.5 0
v -0.2 0.5 0
v 0.3 0.5 0
v -0.5 0.5 -0.1
v -0.3 0.5 -0.1
v -0.2 0.5 -0.1
v 0.3 0.5 -0.1
v -0.6 0.6 0
v -0.5 0.6 0
v 0.3 0.6 0
v 0.5 0.6 0
v -0.6 0.6 -0.1
v -0.5 0.6 -0.1
v 0.3 0.6 -0.1
v 0.5 0.6 -0.1
v -0.6 0.9 0
v -0.5 0.9 0
v -0.6 0.9 -0.1
v -0.5 0.9 -0.1
v -0.5 1.1 0
v -0.4 1.1 0
v -0.5 1.1 -0.1
v -0.4 1.1 -0.1
v -0.4 1.2 0
v -0.3 1.2 0
v -0.4 1.2 -0.1
v -0.3 1.2 -0.1
v -0.3 1.3 0
v -0.2 1.3 0
v -0.3 1.3 -0.1
v -0.2 1.3 -0.1
v -0.2 1.4 0
v -0.1 1.4 0
v -0.2 1.4 -0.1
v -0.1 1.4 -0.1
v -0.1 1.5 0
v 0.5 1.5 0
v -0.1 1.5 -0.1
v 0.5 1.5 -0.1

# faces
f 3/4/1 2/4/1 1/4/1
f 4/4/1 2/4/1 3/4/1
f 7/4/1 6/4/1 5/4/1
f 8/4/1 6/4/1 7/4/1
f 11/4/1 10/4/1 9/4/1
f 12/4/1 10/4/1 11/4/1
f 15/4/1 14/4/1 13/4/1
f 16/4/1 14/4/1 15/4/1
f 19/4/1 18/4/1 17/4/1
f 20/4/1 18/4/1 19/4/1
f 23/4/1 22/4/1 21/4/1
f 24/4/1 22/4/1 23/4/1
f 27/4/1 26/4/1 25/4/1
f 28/4/1 26/4/1 27/4/1
f 29/4/2 30/4/2 31/4/2
f 31/4/2 30/4/2 32/4/2
f 33/4/2 34/4/2 35/4/2
f 35/4/2 34/4/2 36/4/2
f 40/4/3 38/4/3 37/4/3
f 41/4/3 38/4/3 40/4/3
f 42/4/3 38/4/3 41/4/3
f 44/3/3 41/3/3 40/3/3
f 44/1/3 42/1/3 41/1/3
f 45/1/3 42/1/3 44/1/3
f 46/4/3 43/4/3 42/4/3
f 46/1/3 42/1/3 45/1/3
f 47/4/3 43/4/3 46/4/3
f 49/4/3 40/4/3 39/4/3
f 50/3/3 45/3/3 44/3/3
f 50/4/3 40/4/3 49/4/3
f 50/3/3 44/3/3 40/3/3
f 51/3/3 45/3/3 50/3/3
f 52/1/3 47/1/3 46/1/3
f 52/3/3 45/3/3 51/3/3
f 52/1/3 46/1/3 45/1/3
f 53/1/3 47/1/3 52/1/3
f 54/4/3 48/4/3 47/4/3
f 54/1/3 47/1/3 53/1/3
f 55/4/3 48/4/3 54/4/3
f 57/2/3 51/2/3 50/2/3
f 57/2/3 50/2/3 49/2/3
f 58/2/3 51/2/3 57/2/3
f 59/4/3 56/4/3 55/4/3
f 59/1/3 55/1/3 54/1/3
f 59/1/3 54/1/3 53/1/3
f 60/4/3 56/4/3 59/4/3
f 62/2/3 51/2/3 58/2/3
f 62/4/3 58/4/3 57/4/3
f 63/3/3 53/3/3 52/3/3
f 63/2/3 51/2/3 62/2/3
f 63/3/3 52/3/3 51/3/3
f 64/3/3 53/3/3 63/3/3
f 65/1/3 60/1/3 59/1/3
f 65/3/3 53/3/3 64/3/3
f 65/1/3 59/1/3 53/1/3
f 66/1/3 60/1/3 65/1/3
f 67/4/3 61/4/3 60/4/3
f 67/1/3 60/1/3 66/1/3
f 68/4/3 61/4/3 67/4/3
f 70/4/3 62/4/3 57/4/3
f 70/3/3 63/3/3 62/3/3
f 71/2/3 64/2/3 63/2/3
f 71/3/3 63/3/3 70/3/3
f 72/1/3 68/1/3 67/1/3
f 72/1/3 67/1/3 66/1/3
f 73/1/3 68/1/3 72/1/3
f 74/2/3 64/2/3 71/2/3
f 74/2/3 71/2/3 70/2/3
f 75/3/3 66/3/3 65/3/3
f 75/2/3 64/2/3 74/2/3
f 75/3/3 65/3/3 64/3/3
f 76/3/3 66/3/3 75/3/3
f 77/3/3 66/3/3 76/3/3
f 78/1/3 72/1/3 66/1/3
f 78/3/3 66/3/3 77/3/3
f 79/3/3 73/3/3 72/3/3
f 79/1/3 72/1/3 78/1/3
f 80/1/3 68/1/3 73/1/3
f 80/3/3 73/3/3 79/3/3
f 81/4/3 69/4/3 68/4/3
f 81/1/3 68/1/3 80/1/3
f 82/2/3 74/2/3 70/2/3
f 82/3/3 75/3/3 74/3/3
f 83/2/3 76/2/3 75/2/3
f 83/3/3 75/3/3 82/3/3
f 84/1/3 77/1/3 76/1/3
f 84/2/3 76/2/3 83/2/3
f 85/3/3 80/3/3 79/3/3
f 85/1/3 77/1/3 84/1/3
f 85/3/3 79/3/3 78/3/3
f 85/3/3 78/3/3 77/3/3
f 85/3/3 81/3/3 80/3/3
f 86/3/3 81/3/3 85/3/3
f 87/4/3 70/4/3 57/4/3
f 88/2/3 84/2/3 83/2/3
f 88/4/3 70/4/3 87/4/3
f 88/2/3 82/2/3 70/2/3
f 88/2/3 86/2/3 85/2/3
f 88/2/3 85/2/3 84/2/3
f 88/2/3 83/2/3 82/2/3
f 89/2/3 86/2/3 88/2/3
f 90/3/3 81/3/3 86/3/3
f 90/2/3 86/2/3 89/2/3
f 91/4/3 69/4/3 81/4/3
f 91/3/3 81/3/3 90/3/3
f 92/2/3 90/2/3 89/2/3
f 92/4/3 89/4/3 88/4/3
f 92/2/3 91/2/3 90/2/3
f 93/4/3 69/4/3 91/4/3
f 93/2/3 91/2/3 92/2/3
f 94/4/3 92/4/3 88/4/3
f 94/4/3 93/4/3 92/4/3
f 95/4/3 69/4/3 93/4/3
f 95/4/3 93/4/3 94/4/3
f 96/4/4 97/4/4 99/4/4
f 99/4/4 97/4/4 100/4/4
f 100/4/4 97/4/4 101/4/4
f 99/3/4 100/3/4 103/3/4
f 100/1/4 101/1/4 103/1/4
f 103/1/4 101/1/4 104/1/4
f 101/4/4 102/4/4 105/4/4
f 104/1/4 101/1/4 105/1/4
f 105/4/4 102/4/4 106/4/4
f 98/4/4 99/4/4 108/4/4
f 103/3/4 104/3/4 109/3/4
f 108/4/4 99/4/4 109/4/4
f 99/3/4 103/3/4 109/3/4
f 109/3/4 104/3/4 110/3/4
f 105/1/4 106/1/4 111/1/4
f 110/3/4 104/3/4 111/3/4
f 104/1/4 105/1/4 111/1/4
f 111/1/4 106/1/4 112/1/4
f 106/4/4 107/4/4 113/4/4
f 112/1/4 106/1/4 113/1/4
f 113/4/4 107/4/4 114/4/4
f 109/2/4 110/2/4 116/2/4
f 108/2/4 109/2/4 116/2/4
f 116/2/4 110/2/4 117/2/4
f 114/4/4 115/4/4 118/4/4
f 113/1/4 114/1/4 118/1/4
f 112/1/4 113/1/4 118/1/4
f 118/4/4 115/4/4 119/4/4
f 117/2/4 110/2/4 121/2/4
f 116/4/4 117/4/4 121/4/4
f 111/3/4 112/3/4 122/3/4
f 121/2/4 110/2/4 122/2/4
f 110/3/4 111/3/4 122/3/4
f 122/3/4 112/3/4 123/3/4
f 118/1/4 119/1/4 124/1/4
f 123/3/4 112/3/4 124/3/4
f 112/1/4 118/1/4 124/1/4
f 124/1/4 119/1/4 125/1/4
f 119/4/4 120/4/4 126/4/4
f 125/1/4 119/1/4 126/1/4
f 126/4/4 120/4/4 127/4/4
f 116/4/4 121/4/4 129/4/4
f 121/3/4 122/3/4 129/3/4
f 122/2/4 123/2/4 130/2/4
f 129/3/4 122/3/4 130/3/4
f 126/1/4 127/1/4 131/1/4
f 125/1/4 126/1/4 131/1/4
f 131/1/4 127/1/4 132/1/4
f 130/2/4 123/2/4 133/2/4
f 129/2/4 130/2/4 133/2/4
f 124/3/4 125/3/4 134/3/4
f 133/2/4 123/2/4 134/2/4
f 123/3/4 124/3/4 134/3/4
f 134/3/4 125/3/4 135/3/4
f 135/3/4 125/3/4 136/3/4
f 125/1/4 131/1/4 137/1/4
f 136/3/4 125/3/4 137/3/4
f 131/3/4 132/3/4 138/3/4
f 137/1/4 131/1/4 138/1/4
f 132/1/4 127/1/4 139/1/4
f 138/3/4 132/3/4 139/3/4
f 127/4/4 128/4/4 140/4/4
f 139/1/4 127/1/4 140/1/4
f 129/2/4 133/2/4 141/2/4
f 133/3/4 134/3/4 141/3/4
f 134/2/4 135/2/4 142/2/4
f 141/3/4 134/3/4 142/3/4
f 135/1/4 136/1/4 143/1/4
f 142/2/4 135/2/4 143/2/4
f 138/3/4 139/3/4 144/3/4
f 143/1/4 136/1/4 144/1/4
f 137/3/4 138/3/4 144/3/4
f 136/3/4 137/3/4 144/3/4
f 139/3/4 140/3/4 144/3/4
f 144/3/4 140/3/4 145/3/4
f 116/4/4 129/4/4 146/4/4
f 142/2/4 143/2/4 147/2/4
f 146/4/4 129/4/4 147/4/4
f 129/2/4 141/2/4 147/2/4
f 144/2/4 145/2/4 147/2/4
f 143/2/4 144/2/4 147/2/4
f 141/2/4 142/2/4 147/2/4
f 147/2/4 145/2/4 148/2/4
f 145/3/4 140/3/4 149/3/4
f 148/2/4 145/2/4 149/2/4
f 140/4/4 128/4/4 150/4/4
f 149/3/4 140/3/4 150/3/4
f 148/2/4 149/2/4 151/2/4
f 147/4/4 148/4/4 151/4/4
f 149/2/4 150/2/4 151/2/4
f 150/4/4 128/4/4 152/4/4
f 151/2/4 150/2/4 152/2/4
f 147/4/4 151/4/4 153/4/4
f 151/4/4 152/4/4 153/4/4
f 152/4/4 128/4/4 154/4/4
f 153/4/4 152/4/4 154/4/4
f 159/4/5 156/4/5 155/4/5
f 160/2/5 157/2/5 156/2/5
f 160/4/5 156/4/5 159/4/5
f 161/4/5 158/4/5 157/4/5
f 161/2/5 157/2/5 160/2/5
f 162/4/5 158/4/5 161/4/5
f 167/4/5 164/4/5 163/4/5
f 168/4/5 164/4/5 167/4/5
f 169/4/5 166/4/5 165/4/5
f 170/4/5 166/4/5 169/4/5
f 171/4/6 172/4/6 173/4/6
f 173/4/6 172/4/6 174/4/6
f 175/4/6 176/4/6 177/4/6
f 177/4/6 176/4/6 178/4/6
f 179/4/6 180/4/6 181/4/6
f 181/4/6 180/4/6 182/4/6
f 183/4/6 184/4/6 185/4/6
f 185/4/6 184/4/6 186/4/6
f 187/4/6 188/4/6 189/4/6
f 189/4/6 188/4/6 190/4/6
f 191/4/6 192/4/6 193/4/6
f 193/4/6 192/4/6 194/4/6
