# MagicaVoxel @ Ephtracy

# group
o 

# material
mtllib GoldPickaxe.mtl
usemtl palette

# normals
vn -1 0 0
vn 1 0 0
vn 0 0 1
vn 0 0 -1
vn 0 -1 0
vn 0 1 0

# texcoords
vt 0.283203 0.5
vt 0.310547 0.5
vt 0.423828 0.5
vt 0.447266 0.5
vt 0.451172 0.5
vt 0.533203 0.5
vt 0.537109 0.5
vt 0.560547 0.5
vt 0.591797 0.5

# verts
v -1 0 0
v -1 0 -0.1
v -1 0.2 0
v -1 0.2 -0.1
v -0.9 0.2 0
v -0.9 0.2 -0.1
v -0.9 0.3 0
v -0.9 0.3 -0.1
v -0.8 0.3 0
v -0.8 0.3 -0.1
v -0.8 0.4 0
v -0.8 0.4 -0.1
v -0.7 0.4 0
v -0.7 0.4 -0.1
v -0.7 0.5 0
v -0.7 0.5 -0.1
v -0.7 1.8 0
v -0.7 1.8 -0.1
v -0.7 1.9 0
v -0.7 1.9 -0.1
v -0.6 0.5 0
v -0.6 0.5 -0.1
v -0.6 0.6 0
v -0.6 0.6 -0.1
v -0.6 1.9 0
v -0.6 1.9 -0.1
v -0.6 2 0
v -0.6 2 -0.1
v -0.5 0.6 0
v -0.5 0.6 -0.1
v -0.5 0.7 0
v -0.5 0.7 -0.1
v -0.4 0.7 0
v -0.4 0.7 -0.1
v -0.4 0.8 0
v -0.4 0.8 -0.1
v -0.3 0.8 0
v -0.3 0.8 -0.1
v -0.3 0.9 0
v -0.3 0.9 -0.1
v -0.2 0.9 0
v -0.2 0.9 -0.1
v -0.2 1 0
v -0.2 1 -0.1
v -0.2 1.7 0
v -0.2 1.7 -0.1
v -0.2 1.8 0
v -0.2 1.8 -0.1
v -0.1 1 0
v -0.1 1 -0.1
v -0.1 1.1 0
v -0.1 1.1 -0.1
v 0 1.1 0
v 0 1.1 -0.1
v 0 1.2 0
v 0 1.2 -0.1
v 0.1 1.2 0
v 0.1 1.2 -0.1
v 0.1 1.3 0
v 0.1 1.3 -0.1
v 0.1 1.6 0
v 0.1 1.6 -0.1
v 0.1 1.7 0
v 0.1 1.7 -0.1
v 0.2 1.3 0
v 0.2 1.3 -0.1
v 0.2 1.4 0
v 0.2 1.4 -0.1
v 0.3 1.4 0
v 0.3 1.4 -0.1
v 0.3 1.5 0
v 0.3 1.5 -0.1
v 0.3 1.6 0
v 0.3 1.6 -0.1
v 0.6 1.1 0
v 0.6 1.1 -0.1
v 0.6 1.2 0
v 0.6 1.2 -0.1
v 0.7 0.8 0
v 0.7 0.8 -0.1
v 0.7 0.9 0
v 0.7 0.9 -0.1
v 0.7 1 0
v 0.7 1 -0.1
v 0.7 1.1 0
v 0.7 1.1 -0.1
v 0.8 0.3 0
v 0.8 0.3 -0.1
v 0.8 0.6 0
v 0.8 0.6 -0.1
v 0.8 0.8 0
v 0.8 0.8 -0.1
v -0.8 0 0
v -0.8 0 -0.1
v -0.8 0.1 0
v -0.8 0.1 -0.1
v -0.7 0.1 0
v -0.7 0.1 -0.1
v -0.7 0.2 0
v -0.7 0.2 -0.1
v -0.6 0.2 0
v -0.6 0.2 -0.1
v -0.6 0.3 0
v -0.6 0.3 -0.1
v -0.5 0.3 0
v -0.5 0.3 -0.1
v -0.5 0.4 0
v -0.5 0.4 -0.1
v -0.4 0.4 0
v -0.4 0.4 -0.1
v -0.4 0.5 0
v -0.4 0.5 -0.1
v -0.3 0.5 0
v -0.3 0.5 -0.1
v -0.3 0.6 0
v -0.3 0.6 -0.1
v -0.2 0.6 0
v -0.2 0.6 -0.1
v -0.2 0.7 0
v -0.2 0.7 -0.1
v -0.1 0.7 0
v -0.1 0.7 -0.1
v -0.1 0.8 0
v -0.1 0.8 -0.1
v 0 0.8 0
v 0 0.8 -0.1
v 0 0.9 0
v 0 0.9 -0.1
v 0.1 0.9 0
v 0.1 0.9 -0.1
v 0.1 1 0
v 0.1 1 -0.1
v 0.1 1.9 0
v 0.1 1.9 -0.1
v 0.1 2 0
v 0.1 2 -0.1
v 0.2 1 0
v 0.2 1 -0.1
v 0.2 1.1 0
v 0.2 1.1 -0.1
v 0.3 1.1 0
v 0.3 1.1 -0.1
v 0.3 1.2 0
v 0.3 1.2 -0.1
v 0.5 1.8 0
v 0.5 1.8 -0.1
v 0.5 1.9 0
v 0.5 1.9 -0.1
v 0.8 1.5 0
v 0.8 1.5 -0.1
v 0.8 1.6 0
v 0.8 1.6 -0.1
v 0.8 1.7 0
v 0.8 1.7 -0.1
v 0.8 1.8 0
v 0.8 1.8 -0.1
v 0.9 0.3 0
v 0.9 0.3 -0.1
v 0.9 0.4 0
v 0.9 0.4 -0.1
v 0.9 1.2 0
v 0.9 1.2 -0.1
v 0.9 1.3 0
v 0.9 1.3 -0.1
v 0.9 1.5 0
v 0.9 1.5 -0.1
v 1 0.4 0
v 1 0.4 -0.1
v 1 0.6 0
v 1 0.6 -0.1
v 1 1.1 0
v 1 1.1 -0.1
v 1 1.2 0
v 1 1.2 -0.1
v -1 0 0
v -1 0.2 0
v -0.9 0 0
v -0.9 0.1 0
v -0.9 0.2 0
v -0.9 0.3 0
v -0.8 0 0
v -0.8 0.1 0
v -0.8 0.2 0
v -0.8 0.3 0
v -0.8 0.4 0
v -0.7 0.1 0
v -0.7 0.2 0
v -0.7 0.3 0
v -0.7 0.4 0
v -0.7 0.5 0
v -0.7 1.8 0
v -0.7 1.9 0
v -0.6 0.2 0
v -0.6 0.3 0
v -0.6 0.4 0
v -0.6 0.5 0
v -0.6 0.6 0
v -0.6 1.9 0
v -0.6 2 0
v -0.5 0.3 0
v -0.5 0.4 0
v -0.5 0.5 0
v -0.5 0.6 0
v -0.5 0.7 0
v -0.5 1.9 0
v -0.5 2 0
v -0.4 0.4 0
v -0.4 0.5 0
v -0.4 0.6 0
v -0.4 0.7 0
v -0.4 0.8 0
v -0.3 0.5 0
v -0.3 0.6 0
v -0.3 0.7 0
v -0.3 0.8 0
v -0.3 0.9 0
v -0.3 1.8 0
v -0.3 1.9 0
v -0.2 0.6 0
v -0.2 0.7 0
v -0.2 0.8 0
v -0.2 0.9 0
v -0.2 1 0
v -0.2 1.7 0
v -0.2 1.8 0
v -0.2 1.9 0
v -0.1 0.7 0
v -0.1 0.8 0
v -0.1 0.9 0
v -0.1 1 0
v -0.1 1.1 0
v -0.1 1.8 0
v -0.1 1.9 0
v 0 0.8 0
v 0 0.9 0
v 0 1 0
v 0 1.1 0
v 0 1.2 0
v 0 1.8 0
v 0 1.9 0
v 0 2 0
v 0.1 0.9 0
v 0.1 1 0
v 0.1 1.1 0
v 0.1 1.2 0
v 0.1 1.3 0
v 0.1 1.6 0
v 0.1 1.7 0
v 0.1 1.9 0
v 0.1 2 0
v 0.2 1 0
v 0.2 1.1 0
v 0.2 1.2 0
v 0.2 1.3 0
v 0.2 1.4 0
v 0.2 1.6 0
v 0.2 1.7 0
v 0.2 1.8 0
v 0.3 1.1 0
v 0.3 1.2 0
v 0.3 1.3 0
v 0.3 1.4 0
v 0.3 1.5 0
v 0.3 1.6 0
v 0.3 1.7 0
v 0.3 1.8 0
v 0.3 1.9 0
v 0.4 1.3 0
v 0.4 1.4 0
v 0.4 1.5 0
v 0.4 1.6 0
v 0.4 1.7 0
v 0.4 1.8 0
v 0.4 1.9 0
v 0.5 1.2 0
v 0.5 1.3 0
v 0.5 1.4 0
v 0.5 1.5 0
v 0.5 1.6 0
v 0.5 1.7 0
v 0.5 1.8 0
v 0.5 1.9 0
v 0.6 1.1 0
v 0.6 1.2 0
v 0.6 1.3 0
v 0.6 1.4 0
v 0.6 1.5 0
v 0.6 1.6 0
v 0.6 1.7 0
v 0.6 1.8 0
v 0.7 0.8 0
v 0.7 0.9 0
v 0.7 1 0
v 0.7 1.1 0
v 0.7 1.2 0
v 0.7 1.3 0
v 0.7 1.4 0
v 0.7 1.5 0
v 0.7 1.6 0
v 0.7 1.7 0
v 0.8 0.3 0
v 0.8 0.6 0
v 0.8 0.8 0
v 0.8 0.9 0
v 0.8 1 0
v 0.8 1.1 0
v 0.8 1.2 0
v 0.8 1.3 0
v 0.8 1.4 0
v 0.8 1.5 0
v 0.8 1.6 0
v 0.8 1.7 0
v 0.8 1.8 0
v 0.9 0.3 0
v 0.9 0.4 0
v 0.9 0.6 0
v 0.9 0.8 0
v 0.9 1.1 0
v 0.9 1.2 0
v 0.9 1.3 0
v 0.9 1.5 0
v 1 0.4 0
v 1 0.6 0
v 1 1.1 0
v 1 1.2 0
v -1 0 -0.1
v -1 0.2 -0.1
v -0.9 0 -0.1
v -0.9 0.1 -0.1
v -0.9 0.2 -0.1
v -0.9 0.3 -0.1
v -0.8 0 -0.1
v -0.8 0.1 -0.1
v -0.8 0.2 -0.1
v -0.8 0.3 -0.1
v -0.8 0.4 -0.1
v -0.7 0.1 -0.1
v -0.7 0.2 -0.1
v -0.7 0.3 -0.1
v -0.7 0.4 -0.1
v -0.7 0.5 -0.1
v -0.7 1.8 -0.1
v -0.7 1.9 -0.1
v -0.6 0.2 -0.1
v -0.6 0.3 -0.1
v -0.6 0.4 -0.1
v -0.6 0.5 -0.1
v -0.6 0.6 -0.1
v -0.6 1.9 -0.1
v -0.6 2 -0.1
v -0.5 0.3 -0.1
v -0.5 0.4 -0.1
v -0.5 0.5 -0.1
v -0.5 0.6 -0.1
v -0.5 0.7 -0.1
v -0.5 1.9 -0.1
v -0.5 2 -0.1
v -0.4 0.4 -0.1
v -0.4 0.5 -0.1
v -0.4 0.6 -0.1
v -0.4 0.7 -0.1
v -0.4 0.8 -0.1
v -0.3 0.5 -0.1
v -0.3 0.6 -0.1
v -0.3 0.7 -0.1
v -0.3 0.8 -0.1
v -0.3 0.9 -0.1
v -0.3 1.8 -0.1
v -0.3 1.9 -0.1
v -0.2 0.6 -0.1
v -0.2 0.7 -0.1
v -0.2 0.8 -0.1
v -0.2 0.9 -0.1
v -0.2 1 -0.1
v -0.2 1.7 -0.1
v -0.2 1.8 -0.1
v -0.2 1.9 -0.1
v -0.1 0.7 -0.1
v -0.1 0.8 -0.1
v -0.1 0.9 -0.1
v -0.1 1 -0.1
v -0.1 1.1 -0.1
v -0.1 1.8 -0.1
v -0.1 1.9 -0.1
v 0 0.8 -0.1
v 0 0.9 -0.1
v 0 1 -0.1
v 0 1.1 -0.1
v 0 1.2 -0.1
v 0 1.8 -0.1
v 0 1.9 -0.1
v 0 2 -0.1
v 0.1 0.9 -0.1
v 0.1 1 -0.1
v 0.1 1.1 -0.1
v 0.1 1.2 -0.1
v 0.1 1.3 -0.1
v 0.1 1.6 -0.1
v 0.1 1.7 -0.1
v 0.1 1.9 -0.1
v 0.1 2 -0.1
v 0.2 1 -0.1
v 0.2 1.1 -0.1
v 0.2 1.2 -0.1
v 0.2 1.3 -0.1
v 0.2 1.4 -0.1
v 0.2 1.6 -0.1
v 0.2 1.7 -0.1
v 0.2 1.8 -0.1
v 0.3 1.1 -0.1
v 0.3 1.2 -0.1
v 0.3 1.3 -0.1
v 0.3 1.4 -0.1
v 0.3 1.5 -0.1
v 0.3 1.6 -0.1
v 0.3 1.7 -0.1
v 0.3 1.8 -0.1
v 0.3 1.9 -0.1
v 0.4 1.3 -0.1
v 0.4 1.4 -0.1
v 0.4 1.5 -0.1
v 0.4 1.6 -0.1
v 0.4 1.7 -0.1
v 0.4 1.8 -0.1
v 0.4 1.9 -0.1
v 0.5 1.2 -0.1
v 0.5 1.3 -0.1
v 0.5 1.4 -0.1
v 0.5 1.5 -0.1
v 0.5 1.6 -0.1
v 0.5 1.7 -0.1
v 0.5 1.8 -0.1
v 0.5 1.9 -0.1
v 0.6 1.1 -0.1
v 0.6 1.2 -0.1
v 0.6 1.3 -0.1
v 0.6 1.4 -0.1
v 0.6 1.5 -0.1
v 0.6 1.6 -0.1
v 0.6 1.7 -0.1
v 0.6 1.8 -0.1
v 0.7 0.8 -0.1
v 0.7 0.9 -0.1
v 0.7 1 -0.1
v 0.7 1.1 -0.1
v 0.7 1.2 -0.1
v 0.7 1.3 -0.1
v 0.7 1.4 -0.1
v 0.7 1.5 -0.1
v 0.7 1.6 -0.1
v 0.7 1.7 -0.1
v 0.8 0.3 -0.1
v 0.8 0.6 -0.1
v 0.8 0.8 -0.1
v 0.8 0.9 -0.1
v 0.8 1 -0.1
v 0.8 1.1 -0.1
v 0.8 1.2 -0.1
v 0.8 1.3 -0.1
v 0.8 1.4 -0.1
v 0.8 1.5 -0.1
v 0.8 1.6 -0.1
v 0.8 1.7 -0.1
v 0.8 1.8 -0.1
v 0.9 0.3 -0.1
v 0.9 0.4 -0.1
v 0.9 0.6 -0.1
v 0.9 0.8 -0.1
v 0.9 1.1 -0.1
v 0.9 1.2 -0.1
v 0.9 1.3 -0.1
v 0.9 1.5 -0.1
v 1 0.4 -0.1
v 1 0.6 -0.1
v 1 1.1 -0.1
v 1 1.2 -0.1
v -1 0 0
v -0.9 0 0
v -0.8 0 0
v -1 0 -0.1
v -0.9 0 -0.1
v -0.8 0 -0.1
v -0.8 0.1 0
v -0.7 0.1 0
v -0.8 0.1 -0.1
v -0.7 0.1 -0.1
v -0.7 0.2 0
v -0.6 0.2 0
v -0.7 0.2 -0.1
v -0.6 0.2 -0.1
v -0.6 0.3 0
v -0.5 0.3 0
v 0.8 0.3 0
v 0.9 0.3 0
v -0.6 0.3 -0.1
v -0.5 0.3 -0.1
v 0.8 0.3 -0.1
v 0.9 0.3 -0.1
v -0.5 0.4 0
v -0.4 0.4 0
v 0.9 0.4 0
v 1 0.4 0
v -0.5 0.4 -0.1
v -0.4 0.4 -0.1
v 0.9 0.4 -0.1
v 1 0.4 -0.1
v -0.4 0.5 0
v -0.3 0.5 0
v -0.4 0.5 -0.1
v -0.3 0.5 -0.1
v -0.3 0.6 0
v -0.2 0.6 0
v -0.3 0.6 -0.1
v -0.2 0.6 -0.1
v -0.2 0.7 0
v -0.1 0.7 0
v -0.2 0.7 -0.1
v -0.1 0.7 -0.1
v -0.1 0.8 0
v 0 0.8 0
v 0.7 0.8 0
v 0.8 0.8 0
v -0.1 0.8 -0.1
v 0 0.8 -0.1
v 0.7 0.8 -0.1
v 0.8 0.8 -0.1
v 0 0.9 0
v 0.1 0.9 0
v 0 0.9 -0.1
v 0.1 0.9 -0.1
v 0.1 1 0
v 0.2 1 0
v 0.1 1 -0.1
v 0.2 1 -0.1
v 0.2 1.1 0
v 0.3 1.1 0
v 0.6 1.1 0
v 0.7 1.1 0
v 0.2 1.1 -0.1
v 0.3 1.1 -0.1
v 0.6 1.1 -0.1
v 0.7 1.1 -0.1
v 0.3 1.2 0
v 0.5 1.2 0
v 0.6 1.2 0
v 0.3 1.2 -0.1
v 0.5 1.2 -0.1
v 0.6 1.2 -0.1
v 0.1 1.6 0
v 0.2 1.6 0
v 0.3 1.6 0
v 0.1 1.6 -0.1
v 0.2 1.6 -0.1
v 0.3 1.6 -0.1
v -0.2 1.7 0
v 0.1 1.7 0
v -0.2 1.7 -0.1
v 0.1 1.7 -0.1
v -0.7 1.8 0
v -0.3 1.8 0
v -0.2 1.8 0
v -0.7 1.8 -0.1
v -0.3 1.8 -0.1
v -0.2 1.8 -0.1
v -1 0.2 0
v -0.9 0.2 0
v -1 0.2 -0.1
v -0.9 0.2 -0.1
v -0.9 0.3 0
v -0.8 0.3 0
v -0.9 0.3 -0.1
v -0.8 0.3 -0.1
v -0.8 0.4 0
v -0.7 0.4 0
v -0.8 0.4 -0.1
v -0.7 0.4 -0.1
v -0.7 0.5 0
v -0.6 0.5 0
v -0.7 0.5 -0.1
v -0.6 0.5 -0.1
v -0.6 0.6 0
v -0.5 0.6 0
v -0.6 0.6 -0.1
v -0.5 0.6 -0.1
v -0.5 0.7 0
v -0.4 0.7 0
v -0.5 0.7 -0.1
v -0.4 0.7 -0.1
v -0.4 0.8 0
v -0.3 0.8 0
v -0.4 0.8 -0.1
v -0.3 0.8 -0.1
v -0.3 0.9 0
v -0.2 0.9 0
v -0.3 0.9 -0.1
v -0.2 0.9 -0.1
v -0.2 1 0
v -0.1 1 0
v -0.2 1 -0.1
v -0.1 1 -0.1
v -0.1 1.1 0
v 0 1.1 0
v -0.1 1.1 -0.1
v 0 1.1 -0.1
v 0 1.2 0
v 0.1 1.2 0
v 0.9 1.2 0
v 1 1.2 0
v 0 1.2 -0.1
v 0.1 1.2 -0.1
v 0.9 1.2 -0.1
v 1 1.2 -0.1
v 0.1 1.3 0
v 0.2 1.3 0
v 0.1 1.3 -0.1
v 0.2 1.3 -0.1
v 0.2 1.4 0
v 0.3 1.4 0
v 0.2 1.4 -0.1
v 0.3 1.4 -0.1
v 0.8 1.5 0
v 0.9 1.5 0
v 0.8 1.5 -0.1
v 0.9 1.5 -0.1
v 0.5 1.8 0
v 0.6 1.8 0
v 0.8 1.8 0
v 0.5 1.8 -0.1
v 0.6 1.8 -0.1
v 0.8 1.8 -0.1
v -0.7 1.9 0
v -0.6 1.9 0
v 0.1 1.9 0
v 0.3 1.9 0
v 0.4 1.9 0
v 0.5 1.9 0
v -0.7 1.9 -0.1
v -0.6 1.9 -0.1
v 0.1 1.9 -0.1
v 0.3 1.9 -0.1
v 0.4 1.9 -0.1
v 0.5 1.9 -0.1
v -0.6 2 0
v -0.5 2 0
v 0 2 0
v 0.1 2 0
v -0.6 2 -0.1
v -0.5 2 -0.1
v 0 2 -0.1
v 0.1 2 -0.1

# faces
f 3/6/1 2/6/1 1/6/1
f 4/6/1 2/6/1 3/6/1
f 7/6/1 6/6/1 5/6/1
f 8/6/1 6/6/1 7/6/1
f 11/6/1 10/6/1 9/6/1
f 12/6/1 10/6/1 11/6/1
f 15/6/1 14/6/1 13/6/1
f 16/6/1 14/6/1 15/6/1
f 19/5/1 18/5/1 17/5/1
f 20/5/1 18/5/1 19/5/1
f 23/6/1 22/6/1 21/6/1
f 24/6/1 22/6/1 23/6/1
f 27/3/1 26/3/1 25/3/1
f 28/3/1 26/3/1 27/3/1
f 31/6/1 30/6/1 29/6/1
f 32/6/1 30/6/1 31/6/1
f 35/6/1 34/6/1 33/6/1
f 36/6/1 34/6/1 35/6/1
f 39/6/1 38/6/1 37/6/1
f 40/6/1 38/6/1 39/6/1
f 43/6/1 42/6/1 41/6/1
f 44/6/1 42/6/1 43/6/1
f 47/4/1 46/4/1 45/4/1
f 48/4/1 46/4/1 47/4/1
f 51/6/1 50/6/1 49/6/1
f 52/6/1 50/6/1 51/6/1
f 55/6/1 54/6/1 53/6/1
f 56/6/1 54/6/1 55/6/1
f 59/6/1 58/6/1 57/6/1
f 60/6/1 58/6/1 59/6/1
f 63/5/1 62/5/1 61/5/1
f 64/5/1 62/5/1 63/5/1
f 67/6/1 66/6/1 65/6/1
f 68/6/1 66/6/1 67/6/1
f 71/7/1 70/7/1 69/7/1
f 72/7/1 70/7/1 71/7/1
f 73/5/1 72/5/1 71/5/1
f 74/5/1 72/5/1 73/5/1
f 77/4/1 76/4/1 75/4/1
f 78/4/1 76/4/1 77/4/1
f 81/5/1 80/5/1 79/5/1
f 82/5/1 80/5/1 81/5/1
f 83/4/1 82/4/1 81/4/1
f 84/4/1 82/4/1 83/4/1
f 85/3/1 84/3/1 83/3/1
f 86/3/1 84/3/1 85/3/1
f 89/5/1 88/5/1 87/5/1
f 90/5/1 88/5/1 89/5/1
f 91/4/1 90/4/1 89/4/1
f 92/4/1 90/4/1 91/4/1
f 93/8/2 94/8/2 95/8/2
f 95/8/2 94/8/2 96/8/2
f 97/8/2 98/8/2 99/8/2
f 99/8/2 98/8/2 100/8/2
f 101/9/2 102/9/2 103/9/2
f 103/9/2 102/9/2 104/9/2
f 105/9/2 106/9/2 107/9/2
f 107/9/2 106/9/2 108/9/2
f 109/8/2 110/8/2 111/8/2
f 111/8/2 110/8/2 112/8/2
f 113/8/2 114/8/2 115/8/2
f 115/8/2 114/8/2 116/8/2
f 117/8/2 118/8/2 119/8/2
f 119/8/2 118/8/2 120/8/2
f 121/8/2 122/8/2 123/8/2
f 123/8/2 122/8/2 124/8/2
f 125/8/2 126/8/2 127/8/2
f 127/8/2 126/8/2 128/8/2
f 129/6/2 130/6/2 131/6/2
f 131/6/2 130/6/2 132/6/2
f 133/4/2 134/4/2 135/4/2
f 135/4/2 134/4/2 136/4/2
f 137/8/2 138/8/2 139/8/2
f 139/8/2 138/8/2 140/8/2
f 141/6/2 142/6/2 143/6/2
f 143/6/2 142/6/2 144/6/2
f 145/5/2 146/5/2 147/5/2
f 147/5/2 146/5/2 148/5/2
f 149/5/2 150/5/2 151/5/2
f 151/5/2 150/5/2 152/5/2
f 151/8/2 152/8/2 153/8/2
f 153/8/2 152/8/2 154/8/2
f 153/6/2 154/6/2 155/6/2
f 155/6/2 154/6/2 156/6/2
f 157/5/2 158/5/2 159/5/2
f 159/5/2 158/5/2 160/5/2
f 161/1/2 162/1/2 163/1/2
f 163/1/2 162/1/2 164/1/2
f 163/5/2 164/5/2 165/5/2
f 165/5/2 164/5/2 166/5/2
f 167/3/2 168/3/2 169/3/2
f 169/3/2 168/3/2 170/3/2
f 169/1/2 170/1/2 171/1/2
f 171/1/2 170/1/2 172/1/2
f 171/4/2 172/4/2 173/4/2
f 173/4/2 172/4/2 174/4/2
f 177/6/3 176/6/3 175/6/3
f 178/6/3 176/6/3 177/6/3
f 179/6/3 176/6/3 178/6/3
f 181/8/3 178/8/3 177/8/3
f 182/7/3 179/7/3 178/7/3
f 182/8/3 178/8/3 181/8/3
f 183/6/3 180/6/3 179/6/3
f 183/7/3 179/7/3 182/7/3
f 184/6/3 180/6/3 183/6/3
f 186/8/3 183/8/3 182/8/3
f 187/7/3 184/7/3 183/7/3
f 187/8/3 183/8/3 186/8/3
f 188/6/3 185/6/3 184/6/3
f 188/7/3 184/7/3 187/7/3
f 189/6/3 185/6/3 188/6/3
f 193/9/3 188/9/3 187/9/3
f 194/7/3 189/7/3 188/7/3
f 194/9/3 188/9/3 193/9/3
f 195/6/3 190/6/3 189/6/3
f 195/7/3 189/7/3 194/7/3
f 196/6/3 190/6/3 195/6/3
f 198/5/3 192/5/3 191/5/3
f 200/9/3 195/9/3 194/9/3
f 201/7/3 196/7/3 195/7/3
f 201/9/3 195/9/3 200/9/3
f 202/6/3 197/6/3 196/6/3
f 202/7/3 196/7/3 201/7/3
f 203/6/3 197/6/3 202/6/3
f 205/3/3 199/3/3 198/3/3
f 205/5/3 198/5/3 191/5/3
f 206/3/3 199/3/3 205/3/3
f 207/8/3 202/8/3 201/8/3
f 208/9/3 203/9/3 202/9/3
f 208/8/3 202/8/3 207/8/3
f 209/6/3 204/6/3 203/6/3
f 209/9/3 203/9/3 208/9/3
f 210/6/3 204/6/3 209/6/3
f 212/8/3 209/8/3 208/8/3
f 213/9/3 210/9/3 209/9/3
f 213/8/3 209/8/3 212/8/3
f 214/6/3 211/6/3 210/6/3
f 214/9/3 210/9/3 213/9/3
f 215/6/3 211/6/3 214/6/3
f 217/5/3 205/5/3 191/5/3
f 218/1/3 206/1/3 205/1/3
f 218/5/3 205/5/3 217/5/3
f 219/8/3 214/8/3 213/8/3
f 220/9/3 215/9/3 214/9/3
f 220/8/3 214/8/3 219/8/3
f 221/6/3 216/6/3 215/6/3
f 221/9/3 215/9/3 220/9/3
f 222/6/3 216/6/3 221/6/3
f 225/4/3 218/4/3 217/4/3
f 226/1/3 206/1/3 218/1/3
f 226/4/3 218/4/3 225/4/3
f 227/8/3 221/8/3 220/8/3
f 228/7/3 222/7/3 221/7/3
f 228/8/3 221/8/3 227/8/3
f 229/6/3 223/6/3 222/6/3
f 229/7/3 222/7/3 228/7/3
f 230/6/3 223/6/3 229/6/3
f 232/4/3 225/4/3 224/4/3
f 232/3/3 226/3/3 225/3/3
f 233/1/3 206/1/3 226/1/3
f 233/3/3 226/3/3 232/3/3
f 234/8/3 229/8/3 228/8/3
f 235/7/3 230/7/3 229/7/3
f 235/8/3 229/8/3 234/8/3
f 236/6/3 231/6/3 230/6/3
f 236/7/3 230/7/3 235/7/3
f 237/6/3 231/6/3 236/6/3
f 239/4/3 232/4/3 224/4/3
f 239/1/3 233/1/3 232/1/3
f 240/1/3 206/1/3 233/1/3
f 240/1/3 233/1/3 239/1/3
f 241/1/3 206/1/3 240/1/3
f 242/6/3 236/6/3 235/6/3
f 243/7/3 237/7/3 236/7/3
f 243/6/3 236/6/3 242/6/3
f 244/6/3 238/6/3 237/6/3
f 244/7/3 237/7/3 243/7/3
f 245/6/3 238/6/3 244/6/3
f 248/4/3 239/4/3 224/4/3
f 249/4/3 241/4/3 240/4/3
f 249/3/3 240/3/3 239/3/3
f 250/4/3 241/4/3 249/4/3
f 251/8/3 244/8/3 243/8/3
f 252/7/3 245/7/3 244/7/3
f 252/8/3 244/8/3 251/8/3
f 253/6/3 246/6/3 245/6/3
f 253/7/3 245/7/3 252/7/3
f 254/6/3 246/6/3 253/6/3
f 256/5/3 248/5/3 247/5/3
f 257/4/3 239/4/3 248/4/3
f 257/5/3 248/5/3 256/5/3
f 258/3/3 249/3/3 239/3/3
f 258/4/3 239/4/3 257/4/3
f 259/6/3 253/6/3 252/6/3
f 260/7/3 254/7/3 253/7/3
f 260/6/3 253/6/3 259/6/3
f 261/6/3 255/6/3 254/6/3
f 261/7/3 254/7/3 260/7/3
f 262/6/3 255/6/3 261/6/3
f 264/1/3 257/1/3 256/1/3
f 265/3/3 258/3/3 257/3/3
f 265/1/3 257/1/3 264/1/3
f 266/3/3 249/3/3 258/3/3
f 266/3/3 258/3/3 265/3/3
f 267/3/3 249/3/3 266/3/3
f 268/6/3 261/6/3 260/6/3
f 268/9/3 262/9/3 261/9/3
f 269/7/3 263/7/3 262/7/3
f 269/9/3 262/9/3 268/9/3
f 270/5/3 264/5/3 263/5/3
f 270/7/3 263/7/3 269/7/3
f 271/3/3 265/3/3 264/3/3
f 271/5/3 264/5/3 270/5/3
f 271/3/3 266/3/3 265/3/3
f 272/3/3 266/3/3 271/3/3
f 273/4/3 267/4/3 266/4/3
f 273/3/3 266/3/3 272/3/3
f 274/4/3 267/4/3 273/4/3
f 275/6/3 268/6/3 260/6/3
f 276/7/3 269/7/3 268/7/3
f 276/6/3 268/6/3 275/6/3
f 277/5/3 270/5/3 269/5/3
f 277/7/3 269/7/3 276/7/3
f 277/5/3 271/5/3 270/5/3
f 278/5/3 271/5/3 277/5/3
f 279/1/3 272/1/3 271/1/3
f 279/5/3 271/5/3 278/5/3
f 280/2/3 273/2/3 272/2/3
f 280/1/3 272/1/3 279/1/3
f 281/5/3 274/5/3 273/5/3
f 281/2/3 273/2/3 280/2/3
f 282/5/3 274/5/3 281/5/3
f 284/5/3 276/5/3 275/5/3
f 284/5/3 277/5/3 276/5/3
f 285/5/3 277/5/3 284/5/3
f 286/2/3 278/2/3 277/2/3
f 286/5/3 277/5/3 285/5/3
f 287/3/3 280/3/3 279/3/3
f 287/2/3 278/2/3 286/2/3
f 287/3/3 279/3/3 278/3/3
f 288/3/3 280/3/3 287/3/3
f 289/5/3 281/5/3 280/5/3
f 289/3/3 280/3/3 288/3/3
f 290/5/3 281/5/3 289/5/3
f 294/4/3 285/4/3 284/4/3
f 294/4/3 284/4/3 283/4/3
f 295/4/3 285/4/3 294/4/3
f 296/3/3 286/3/3 285/3/3
f 296/4/3 285/4/3 295/4/3
f 296/3/3 288/3/3 287/3/3
f 296/3/3 287/3/3 286/3/3
f 297/3/3 288/3/3 296/3/3
f 298/3/3 288/3/3 297/3/3
f 299/5/3 289/5/3 288/5/3
f 299/3/3 288/3/3 298/3/3
f 300/6/3 290/6/3 289/6/3
f 300/5/3 289/5/3 299/5/3
f 303/5/3 292/5/3 291/5/3
f 304/4/3 293/4/3 292/4/3
f 304/5/3 292/5/3 303/5/3
f 305/3/3 295/3/3 294/3/3
f 305/4/3 293/4/3 304/4/3
f 305/3/3 294/3/3 293/3/3
f 306/3/3 295/3/3 305/3/3
f 307/1/3 296/1/3 295/1/3
f 307/3/3 295/3/3 306/3/3
f 308/3/3 297/3/3 296/3/3
f 308/1/3 296/1/3 307/1/3
f 309/4/3 298/4/3 297/4/3
f 309/3/3 297/3/3 308/3/3
f 310/5/3 299/5/3 298/5/3
f 310/4/3 298/4/3 309/4/3
f 311/8/3 300/8/3 299/8/3
f 311/5/3 299/5/3 310/5/3
f 312/6/3 290/6/3 300/6/3
f 312/8/3 300/8/3 311/8/3
f 313/6/3 290/6/3 312/6/3
f 314/5/3 302/5/3 301/5/3
f 315/5/3 302/5/3 314/5/3
f 316/4/3 303/4/3 302/4/3
f 316/5/3 302/5/3 315/5/3
f 317/3/3 304/3/3 303/3/3
f 317/4/3 303/4/3 316/4/3
f 317/3/3 306/3/3 305/3/3
f 317/3/3 305/3/3 304/3/3
f 318/1/3 308/1/3 307/1/3
f 318/3/3 306/3/3 317/3/3
f 318/1/3 307/1/3 306/1/3
f 319/1/3 308/1/3 318/1/3
f 320/5/3 309/5/3 308/5/3
f 320/1/3 308/1/3 319/1/3
f 320/5/3 310/5/3 309/5/3
f 321/5/3 310/5/3 320/5/3
f 322/3/3 316/3/3 315/3/3
f 323/1/3 318/1/3 317/1/3
f 323/3/3 316/3/3 322/3/3
f 323/1/3 317/1/3 316/1/3
f 324/4/3 319/4/3 318/4/3
f 324/1/3 318/1/3 323/1/3
f 325/4/3 319/4/3 324/4/3
f 326/6/4 327/6/4 328/6/4
f 328/6/4 327/6/4 329/6/4
f 329/6/4 327/6/4 330/6/4
f 328/8/4 329/8/4 332/8/4
f 329/7/4 330/7/4 333/7/4
f 332/8/4 329/8/4 333/8/4
f 330/6/4 331/6/4 334/6/4
f 333/7/4 330/7/4 334/7/4
f 334/6/4 331/6/4 335/6/4
f 333/8/4 334/8/4 337/8/4
f 334/7/4 335/7/4 338/7/4
f 337/8/4 334/8/4 338/8/4
f 335/6/4 336/6/4 339/6/4
f 338/7/4 335/7/4 339/7/4
f 339/6/4 336/6/4 340/6/4
f 338/9/4 339/9/4 344/9/4
f 339/7/4 340/7/4 345/7/4
f 344/9/4 339/9/4 345/9/4
f 340/6/4 341/6/4 346/6/4
f 345/7/4 340/7/4 346/7/4
f 346/6/4 341/6/4 347/6/4
f 342/5/4 343/5/4 349/5/4
f 345/9/4 346/9/4 351/9/4
f 346/7/4 347/7/4 352/7/4
f 351/9/4 346/9/4 352/9/4
f 347/6/4 348/6/4 353/6/4
f 352/7/4 347/7/4 353/7/4
f 353/6/4 348/6/4 354/6/4
f 349/3/4 350/3/4 356/3/4
f 342/5/4 349/5/4 356/5/4
f 356/3/4 350/3/4 357/3/4
f 352/8/4 353/8/4 358/8/4
f 353/9/4 354/9/4 359/9/4
f 358/8/4 353/8/4 359/8/4
f 354/6/4 355/6/4 360/6/4
f 359/9/4 354/9/4 360/9/4
f 360/6/4 355/6/4 361/6/4
f 359/8/4 360/8/4 363/8/4
f 360/9/4 361/9/4 364/9/4
f 363/8/4 360/8/4 364/8/4
f 361/6/4 362/6/4 365/6/4
f 364/9/4 361/9/4 365/9/4
f 365/6/4 362/6/4 366/6/4
f 342/5/4 356/5/4 368/5/4
f 356/1/4 357/1/4 369/1/4
f 368/5/4 356/5/4 369/5/4
f 364/8/4 365/8/4 370/8/4
f 365/9/4 366/9/4 371/9/4
f 370/8/4 365/8/4 371/8/4
f 366/6/4 367/6/4 372/6/4
f 371/9/4 366/9/4 372/9/4
f 372/6/4 367/6/4 373/6/4
f 368/4/4 369/4/4 376/4/4
f 369/1/4 357/1/4 377/1/4
f 376/4/4 369/4/4 377/4/4
f 371/8/4 372/8/4 378/8/4
f 372/7/4 373/7/4 379/7/4
f 378/8/4 372/8/4 379/8/4
f 373/6/4 374/6/4 380/6/4
f 379/7/4 373/7/4 380/7/4
f 380/6/4 374/6/4 381/6/4
f 375/4/4 376/4/4 383/4/4
f 376/3/4 377/3/4 383/3/4
f 377/1/4 357/1/4 384/1/4
f 383/3/4 377/3/4 384/3/4
f 379/8/4 380/8/4 385/8/4
f 380/7/4 381/7/4 386/7/4
f 385/8/4 380/8/4 386/8/4
f 381/6/4 382/6/4 387/6/4
f 386/7/4 381/7/4 387/7/4
f 387/6/4 382/6/4 388/6/4
f 375/4/4 383/4/4 390/4/4
f 383/1/4 384/1/4 390/1/4
f 384/1/4 357/1/4 391/1/4
f 390/1/4 384/1/4 391/1/4
f 391/1/4 357/1/4 392/1/4
f 386/6/4 387/6/4 393/6/4
f 387/7/4 388/7/4 394/7/4
f 393/6/4 387/6/4 394/6/4
f 388/6/4 389/6/4 395/6/4
f 394/7/4 388/7/4 395/7/4
f 395/6/4 389/6/4 396/6/4
f 375/4/4 390/4/4 399/4/4
f 391/4/4 392/4/4 400/4/4
f 390/3/4 391/3/4 400/3/4
f 400/4/4 392/4/4 401/4/4
f 394/8/4 395/8/4 402/8/4
f 395/7/4 396/7/4 403/7/4
f 402/8/4 395/8/4 403/8/4
f 396/6/4 397/6/4 404/6/4
f 403/7/4 396/7/4 404/7/4
f 404/6/4 397/6/4 405/6/4
f 398/5/4 399/5/4 407/5/4
f 399/4/4 390/4/4 408/4/4
f 407/5/4 399/5/4 408/5/4
f 390/3/4 400/3/4 409/3/4
f 408/4/4 390/4/4 409/4/4
f 403/6/4 404/6/4 410/6/4
f 404/7/4 405/7/4 411/7/4
f 410/6/4 404/6/4 411/6/4
f 405/6/4 406/6/4 412/6/4
f 411/7/4 405/7/4 412/7/4
f 412/6/4 406/6/4 413/6/4
f 407/1/4 408/1/4 415/1/4
f 408/3/4 409/3/4 416/3/4
f 415/1/4 408/1/4 416/1/4
f 409/3/4 400/3/4 417/3/4
f 416/3/4 409/3/4 417/3/4
f 417/3/4 400/3/4 418/3/4
f 411/6/4 412/6/4 419/6/4
f 412/9/4 413/9/4 419/9/4
f 413/7/4 414/7/4 420/7/4
f 419/9/4 413/9/4 420/9/4
f 414/5/4 415/5/4 421/5/4
f 420/7/4 414/7/4 421/7/4
f 415/3/4 416/3/4 422/3/4
f 421/5/4 415/5/4 422/5/4
f 416/3/4 417/3/4 422/3/4
f 422/3/4 417/3/4 423/3/4
f 417/4/4 418/4/4 424/4/4
f 423/3/4 417/3/4 424/3/4
f 424/4/4 418/4/4 425/4/4
f 411/6/4 419/6/4 426/6/4
f 419/7/4 420/7/4 427/7/4
f 426/6/4 419/6/4 427/6/4
f 420/5/4 421/5/4 428/5/4
f 427/7/4 420/7/4 428/7/4
f 421/5/4 422/5/4 428/5/4
f 428/5/4 422/5/4 429/5/4
f 422/1/4 423/1/4 430/1/4
f 429/5/4 422/5/4 430/5/4
f 423/2/4 424/2/4 431/2/4
f 430/1/4 423/1/4 431/1/4
f 424/5/4 425/5/4 432/5/4
f 431/2/4 424/2/4 432/2/4
f 432/5/4 425/5/4 433/5/4
f 426/5/4 427/5/4 435/5/4
f 427/5/4 428/5/4 435/5/4
f 435/5/4 428/5/4 436/5/4
f 428/2/4 429/2/4 437/2/4
f 436/5/4 428/5/4 437/5/4
f 430/3/4 431/3/4 438/3/4
f 437/2/4 429/2/4 438/2/4
f 429/3/4 430/3/4 438/3/4
f 438/3/4 431/3/4 439/3/4
f 431/5/4 432/5/4 440/5/4
f 439/3/4 431/3/4 440/3/4
f 440/5/4 432/5/4 441/5/4
f 435/4/4 436/4/4 445/4/4
f 434/4/4 435/4/4 445/4/4
f 445/4/4 436/4/4 446/4/4
f 436/3/4 437/3/4 447/3/4
f 446/4/4 436/4/4 447/4/4
f 438/3/4 439/3/4 447/3/4
f 437/3/4 438/3/4 447/3/4
f 447/3/4 439/3/4 448/3/4
f 448/3/4 439/3/4 449/3/4
f 439/5/4 440/5/4 450/5/4
f 449/3/4 439/3/4 450/3/4
f 440/6/4 441/6/4 451/6/4
f 450/5/4 440/5/4 451/5/4
f 442/5/4 443/5/4 454/5/4
f 443/4/4 444/4/4 455/4/4
f 454/5/4 443/5/4 455/5/4
f 445/3/4 446/3/4 456/3/4
f 455/4/4 444/4/4 456/4/4
f 444/3/4 445/3/4 456/3/4
f 456/3/4 446/3/4 457/3/4
f 446/1/4 447/1/4 458/1/4
f 457/3/4 446/3/4 458/3/4
f 447/3/4 448/3/4 459/3/4
f 458/1/4 447/1/4 459/1/4
f 448/4/4 449/4/4 460/4/4
f 459/3/4 448/3/4 460/3/4
f 449/5/4 450/5/4 461/5/4
f 460/4/4 449/4/4 461/4/4
f 450/8/4 451/8/4 462/8/4
f 461/5/4 450/5/4 462/5/4
f 451/6/4 441/6/4 463/6/4
f 462/8/4 451/8/4 463/8/4
f 463/6/4 441/6/4 464/6/4
f 452/5/4 453/5/4 465/5/4
f 465/5/4 453/5/4 466/5/4
f 453/4/4 454/4/4 467/4/4
f 466/5/4 453/5/4 467/5/4
f 454/3/4 455/3/4 468/3/4
f 467/4/4 454/4/4 468/4/4
f 456/3/4 457/3/4 468/3/4
f 455/3/4 456/3/4 468/3/4
f 458/1/4 459/1/4 469/1/4
f 468/3/4 457/3/4 469/3/4
f 457/1/4 458/1/4 469/1/4
f 469/1/4 459/1/4 470/1/4
f 459/5/4 460/5/4 471/5/4
f 470/1/4 459/1/4 471/1/4
f 460/5/4 461/5/4 471/5/4
f 471/5/4 461/5/4 472/5/4
f 466/3/4 467/3/4 473/3/4
f 468/1/4 469/1/4 474/1/4
f 473/3/4 467/3/4 474/3/4
f 467/1/4 468/1/4 474/1/4
f 469/4/4 470/4/4 475/4/4
f 474/1/4 469/1/4 475/1/4
f 475/4/4 470/4/4 476/4/4
f 480/6/5 478/6/5 477/6/5
f 481/8/5 479/8/5 478/8/5
f 481/6/5 478/6/5 480/6/5
f 482/8/5 479/8/5 481/8/5
f 485/8/5 484/8/5 483/8/5
f 486/8/5 484/8/5 485/8/5
f 489/9/5 488/9/5 487/9/5
f 490/9/5 488/9/5 489/9/5
f 495/9/5 492/9/5 491/9/5
f 496/9/5 492/9/5 495/9/5
f 497/5/5 494/5/5 493/5/5
f 498/5/5 494/5/5 497/5/5
f 503/8/5 500/8/5 499/8/5
f 504/8/5 500/8/5 503/8/5
f 505/3/5 502/3/5 501/3/5
f 506/3/5 502/3/5 505/3/5
f 509/8/5 508/8/5 507/8/5
f 510/8/5 508/8/5 509/8/5
f 513/8/5 512/8/5 511/8/5
f 514/8/5 512/8/5 513/8/5
f 517/8/5 516/8/5 515/8/5
f 518/8/5 516/8/5 517/8/5
f 523/8/5 520/8/5 519/8/5
f 524/8/5 520/8/5 523/8/5
f 525/5/5 522/5/5 521/5/5
f 526/5/5 522/5/5 525/5/5
f 529/6/5 528/6/5 527/6/5
f 530/6/5 528/6/5 529/6/5
f 533/8/5 532/8/5 531/8/5
f 534/8/5 532/8/5 533/8/5
f 539/6/5 536/6/5 535/6/5
f 540/6/5 536/6/5 539/6/5
f 541/4/5 538/4/5 537/4/5
f 542/4/5 538/4/5 541/4/5
f 546/6/5 544/6/5 543/6/5
f 547/5/5 545/5/5 544/5/5
f 547/6/5 544/6/5 546/6/5
f 548/5/5 545/5/5 547/5/5
f 552/5/5 550/5/5 549/5/5
f 553/1/5 551/1/5 550/1/5
f 553/5/5 550/5/5 552/5/5
f 554/1/5 551/1/5 553/1/5
f 557/4/5 556/4/5 555/4/5
f 558/4/5 556/4/5 557/4/5
f 562/5/5 560/5/5 559/5/5
f 563/4/5 561/4/5 560/4/5
f 563/5/5 560/5/5 562/5/5
f 564/4/5 561/4/5 563/4/5
f 565/6/6 566/6/6 567/6/6
f 567/6/6 566/6/6 568/6/6
f 569/6/6 570/6/6 571/6/6
f 571/6/6 570/6/6 572/6/6
f 573/6/6 574/6/6 575/6/6
f 575/6/6 574/6/6 576/6/6
f 577/6/6 578/6/6 579/6/6
f 579/6/6 578/6/6 580/6/6
f 581/6/6 582/6/6 583/6/6
f 583/6/6 582/6/6 584/6/6
f 585/6/6 586/6/6 587/6/6
f 587/6/6 586/6/6 588/6/6
f 589/6/6 590/6/6 591/6/6
f 591/6/6 590/6/6 592/6/6
f 593/6/6 594/6/6 595/6/6
f 595/6/6 594/6/6 596/6/6
f 597/6/6 598/6/6 599/6/6
f 599/6/6 598/6/6 600/6/6
f 601/6/6 602/6/6 603/6/6
f 603/6/6 602/6/6 604/6/6
f 605/6/6 606/6/6 609/6/6
f 609/6/6 606/6/6 610/6/6
f 607/4/6 608/4/6 611/4/6
f 611/4/6 608/4/6 612/4/6
f 613/6/6 614/6/6 615/6/6
f 615/6/6 614/6/6 616/6/6
f 617/6/6 618/6/6 619/6/6
f 619/6/6 618/6/6 620/6/6
f 621/5/6 622/5/6 623/5/6
f 623/5/6 622/5/6 624/5/6
f 625/5/6 626/5/6 628/5/6
f 626/6/6 627/6/6 629/6/6
f 628/5/6 626/5/6 629/5/6
f 629/6/6 627/6/6 630/6/6
f 631/5/6 632/5/6 637/5/6
f 637/5/6 632/5/6 638/5/6
f 633/3/6 634/3/6 639/3/6
f 634/4/6 635/4/6 640/4/6
f 639/3/6 634/3/6 640/3/6
f 635/5/6 636/5/6 641/5/6
f 640/4/6 635/4/6 641/4/6
f 641/5/6 636/5/6 642/5/6
f 643/3/6 644/3/6 647/3/6
f 644/1/6 645/1/6 648/1/6
f 647/3/6 644/3/6 648/3/6
f 645/4/6 646/4/6 649/4/6
f 648/1/6 645/1/6 649/1/6
f 649/4/6 646/4/6 650/4/6
