# MagicaVoxel @ Ephtracy

# group
o 

# material
mtllib IronIngot.mtl
usemtl palette

# normals
vn -1 0 0
vn 1 0 0
vn 0 0 1
vn 0 0 -1
vn 0 -1 0
vn 0 1 0

# texcoords
vt 0.283203 0.5
vt 0.423828 0.5
vt 0.447266 0.5
vt 0.451172 0.5
vt 0.591797 0.5

# verts
v -1 0.5 0
v -1 0.5 -0.1
v -1 0.6 0
v -1 0.6 -0.1
v -1 0.7 0
v -1 0.7 -0.1
v -1 0.8 0
v -1 0.8 -0.1
v -0.9 0.4 0
v -0.9 0.4 -0.1
v -0.9 0.5 0
v -0.9 0.5 -0.1
v -0.9 0.8 0
v -0.9 0.8 -0.1
v -0.9 0.9 0
v -0.9 0.9 -0.1
v -0.8 0.3 0
v -0.8 0.3 -0.1
v -0.8 0.4 0
v -0.8 0.4 -0.1
v -0.8 0.9 0
v -0.8 0.9 -0.1
v -0.8 1 0
v -0.8 1 -0.1
v -0.7 0.2 0
v -0.7 0.2 -0.1
v -0.7 0.3 0
v -0.7 0.3 -0.1
v -0.7 1 0
v -0.7 1 -0.1
v -0.7 1.1 0
v -0.7 1.1 -0.1
v -0.6 0.1 0
v -0.6 0.1 -0.1
v -0.6 0.2 0
v -0.6 0.2 -0.1
v -0.6 1.1 0
v -0.6 1.1 -0.1
v -0.6 1.2 0
v -0.6 1.2 -0.1
v -0.5 0 0
v -0.5 0 -0.1
v -0.5 0.1 0
v -0.5 0.1 -0.1
v -0.5 1.2 0
v -0.5 1.2 -0.1
v -0.5 1.3 0
v -0.5 1.3 -0.1
v -0.4 1.3 0
v -0.4 1.3 -0.1
v -0.4 1.4 0
v -0.4 1.4 -0.1
v -0.3 1.4 0
v -0.3 1.4 -0.1
v -0.3 1.5 0
v -0.3 1.5 -0.1
v -0.2 1.5 0
v -0.2 1.5 -0.1
v -0.2 1.6 0
v -0.2 1.6 -0.1
v -0.1 1.6 0
v -0.1 1.6 -0.1
v -0.1 1.7 0
v -0.1 1.7 -0.1
v 0 1.7 0
v 0 1.7 -0.1
v 0 1.8 0
v 0 1.8 -0.1
v 0.1 1.8 0
v 0.1 1.8 -0.1
v 0.1 1.9 0
v 0.1 1.9 -0.1
v 0.2 1.9 0
v 0.2 1.9 -0.1
v 0.2 2 0
v 0.2 2 -0.1
v -0.1 0 0
v -0.1 0 -0.1
v -0.1 0.1 0
v -0.1 0.1 -0.1
v 0 0.1 0
v 0 0.1 -0.1
v 0 0.2 0
v 0 0.2 -0.1
v 0.1 0.2 0
v 0.1 0.2 -0.1
v 0.1 0.3 0
v 0.1 0.3 -0.1
v 0.2 0.3 0
v 0.2 0.3 -0.1
v 0.2 0.4 0
v 0.2 0.4 -0.1
v 0.3 0.4 0
v 0.3 0.4 -0.1
v 0.3 0.5 0
v 0.3 0.5 -0.1
v 0.4 0.5 0
v 0.4 0.5 -0.1
v 0.4 0.6 0
v 0.4 0.6 -0.1
v 0.5 0.6 0
v 0.5 0.6 -0.1
v 0.5 0.7 0
v 0.5 0.7 -0.1
v 0.5 1.9 0
v 0.5 1.9 -0.1
v 0.5 2 0
v 0.5 2 -0.1
v 0.6 0.7 0
v 0.6 0.7 -0.1
v 0.6 0.8 0
v 0.6 0.8 -0.1
v 0.6 1.8 0
v 0.6 1.8 -0.1
v 0.6 1.9 0
v 0.6 1.9 -0.1
v 0.7 0.8 0
v 0.7 0.8 -0.1
v 0.7 0.9 0
v 0.7 0.9 -0.1
v 0.7 1.7 0
v 0.7 1.7 -0.1
v 0.7 1.8 0
v 0.7 1.8 -0.1
v 0.8 0.9 0
v 0.8 0.9 -0.1
v 0.8 1 0
v 0.8 1 -0.1
v 0.8 1.6 0
v 0.8 1.6 -0.1
v 0.8 1.7 0
v 0.8 1.7 -0.1
v 0.9 1 0
v 0.9 1 -0.1
v 0.9 1.1 0
v 0.9 1.1 -0.1
v 0.9 1.5 0
v 0.9 1.5 -0.1
v 0.9 1.6 0
v 0.9 1.6 -0.1
v 1 1.1 0
v 1 1.1 -0.1
v 1 1.2 0
v 1 1.2 -0.1
v 1 1.4 0
v 1 1.4 -0.1
v 1 1.5 0
v 1 1.5 -0.1
v -1 0.5 0
v -1 0.6 0
v -1 0.7 0
v -1 0.8 0
v -0.9 0.4 0
v -0.9 0.5 0
v -0.9 0.6 0
v -0.9 0.7 0
v -0.9 0.8 0
v -0.9 0.9 0
v -0.8 0.3 0
v -0.8 0.4 0
v -0.8 0.5 0
v -0.8 0.6 0
v -0.8 0.8 0
v -0.8 0.9 0
v -0.8 1 0
v -0.7 0.2 0
v -0.7 0.3 0
v -0.7 0.4 0
v -0.7 0.5 0
v -0.7 0.6 0
v -0.7 0.9 0
v -0.7 1 0
v -0.7 1.1 0
v -0.6 0.1 0
v -0.6 0.2 0
v -0.6 0.3 0
v -0.6 0.7 0
v -0.6 0.8 0
v -0.6 1 0
v -0.6 1.1 0
v -0.6 1.2 0
v -0.5 0 0
v -0.5 0.1 0
v -0.5 0.2 0
v -0.5 0.6 0
v -0.5 0.7 0
v -0.5 1.1 0
v -0.5 1.2 0
v -0.5 1.3 0
v -0.4 0.2 0
v -0.4 0.3 0
v -0.4 0.4 0
v -0.4 0.5 0
v -0.4 1.2 0
v -0.4 1.3 0
v -0.4 1.4 0
v -0.3 1.3 0
v -0.3 1.4 0
v -0.3 1.5 0
v -0.2 0.3 0
v -0.2 0.4 0
v -0.2 0.5 0
v -0.2 0.6 0
v -0.2 0.7 0
v -0.2 1.3 0
v -0.2 1.4 0
v -0.2 1.5 0
v -0.2 1.6 0
v -0.1 0 0
v -0.1 0.1 0
v -0.1 0.2 0
v -0.1 0.4 0
v -0.1 0.5 0
v -0.1 0.6 0
v -0.1 0.7 0
v -0.1 0.8 0
v -0.1 1.3 0
v -0.1 1.4 0
v -0.1 1.5 0
v -0.1 1.6 0
v -0.1 1.7 0
v 0 0.1 0
v 0 0.2 0
v 0 0.3 0
v 0 0.5 0
v 0 0.6 0
v 0 0.7 0
v 0 1.4 0
v 0 1.5 0
v 0 1.6 0
v 0 1.7 0
v 0 1.8 0
v 0.1 0.2 0
v 0.1 0.3 0
v 0.1 0.4 0
v 0.1 0.6 0
v 0.1 0.7 0
v 0.1 0.8 0
v 0.1 0.9 0
v 0.1 1.5 0
v 0.1 1.6 0
v 0.1 1.7 0
v 0.1 1.8 0
v 0.1 1.9 0
v 0.2 0.3 0
v 0.2 0.4 0
v 0.2 0.5 0
v 0.2 0.7 0
v 0.2 0.8 0
v 0.2 0.9 0
v 0.2 1 0
v 0.2 1.6 0
v 0.2 1.7 0
v 0.2 1.8 0
v 0.2 1.9 0
v 0.2 2 0
v 0.3 0.4 0
v 0.3 0.5 0
v 0.3 0.6 0
v 0.3 0.8 0
v 0.3 0.9 0
v 0.3 1 0
v 0.3 1.2 0
v 0.3 1.7 0
v 0.3 1.9 0
v 0.3 2 0
v 0.4 0.5 0
v 0.4 0.6 0
v 0.4 0.7 0
v 0.4 0.9 0
v 0.4 1 0
v 0.4 1.1 0
v 0.4 1.2 0
v 0.4 1.3 0
v 0.4 1.8 0
v 0.4 1.9 0
v 0.4 2 0
v 0.5 0.6 0
v 0.5 0.7 0
v 0.5 0.8 0
v 0.5 1 0
v 0.5 1.1 0
v 0.5 1.2 0
v 0.5 1.3 0
v 0.5 1.4 0
v 0.5 1.8 0
v 0.5 1.9 0
v 0.5 2 0
v 0.6 0.7 0
v 0.6 0.8 0
v 0.6 0.9 0
v 0.6 1 0
v 0.6 1.1 0
v 0.6 1.2 0
v 0.6 1.7 0
v 0.6 1.8 0
v 0.6 1.9 0
v 0.7 0.8 0
v 0.7 0.9 0
v 0.7 1 0
v 0.7 1.1 0
v 0.7 1.2 0
v 0.7 1.4 0
v 0.7 1.6 0
v 0.7 1.7 0
v 0.7 1.8 0
v 0.8 0.9 0
v 0.8 1 0
v 0.8 1.1 0
v 0.8 1.3 0
v 0.8 1.4 0
v 0.8 1.5 0
v 0.8 1.6 0
v 0.8 1.7 0
v 0.9 1 0
v 0.9 1.1 0
v 0.9 1.2 0
v 0.9 1.3 0
v 0.9 1.4 0
v 0.9 1.5 0
v 0.9 1.6 0
v 1 1.1 0
v 1 1.2 0
v 1 1.4 0
v 1 1.5 0
v -1 0.5 -0.1
v -1 0.6 -0.1
v -1 0.7 -0.1
v -1 0.8 -0.1
v -0.9 0.4 -0.1
v -0.9 0.5 -0.1
v -0.9 0.6 -0.1
v -0.9 0.7 -0.1
v -0.9 0.8 -0.1
v -0.9 0.9 -0.1
v -0.8 0.3 -0.1
v -0.8 0.4 -0.1
v -0.8 0.5 -0.1
v -0.8 0.6 -0.1
v -0.8 0.8 -0.1
v -0.8 0.9 -0.1
v -0.8 1 -0.1
v -0.7 0.2 -0.1
v -0.7 0.3 -0.1
v -0.7 0.4 -0.1
v -0.7 0.5 -0.1
v -0.7 0.6 -0.1
v -0.7 0.9 -0.1
v -0.7 1 -0.1
v -0.7 1.1 -0.1
v -0.6 0.1 -0.1
v -0.6 0.2 -0.1
v -0.6 0.3 -0.1
v -0.6 0.7 -0.1
v -0.6 0.8 -0.1
v -0.6 1 -0.1
v -0.6 1.1 -0.1
v -0.6 1.2 -0.1
v -0.5 0 -0.1
v -0.5 0.1 -0.1
v -0.5 0.2 -0.1
v -0.5 0.6 -0.1
v -0.5 0.7 -0.1
v -0.5 1.1 -0.1
v -0.5 1.2 -0.1
v -0.5 1.3 -0.1
v -0.4 0.2 -0.1
v -0.4 0.3 -0.1
v -0.4 0.4 -0.1
v -0.4 0.5 -0.1
v -0.4 1.2 -0.1
v -0.4 1.3 -0.1
v -0.4 1.4 -0.1
v -0.3 1.3 -0.1
v -0.3 1.4 -0.1
v -0.3 1.5 -0.1
v -0.2 0.3 -0.1
v -0.2 0.4 -0.1
v -0.2 0.5 -0.1
v -0.2 0.6 -0.1
v -0.2 0.7 -0.1
v -0.2 1.3 -0.1
v -0.2 1.4 -0.1
v -0.2 1.5 -0.1
v -0.2 1.6 -0.1
v -0.1 0 -0.1
v -0.1 0.1 -0.1
v -0.1 0.2 -0.1
v -0.1 0.4 -0.1
v -0.1 0.5 -0.1
v -0.1 0.6 -0.1
v -0.1 0.7 -0.1
v -0.1 0.8 -0.1
v -0.1 1.3 -0.1
v -0.1 1.4 -0.1
v -0.1 1.5 -0.1
v -0.1 1.6 -0.1
v -0.1 1.7 -0.1
v 0 0.1 -0.1
v 0 0.2 -0.1
v 0 0.3 -0.1
v 0 0.5 -0.1
v 0 0.6 -0.1
v 0 0.7 -0.1
v 0 1.4 -0.1
v 0 1.5 -0.1
v 0 1.6 -0.1
v 0 1.7 -0.1
v 0 1.8 -0.1
v 0.1 0.2 -0.1
v 0.1 0.3 -0.1
v 0.1 0.4 -0.1
v 0.1 0.6 -0.1
v 0.1 0.7 -0.1
v 0.1 0.8 -0.1
v 0.1 0.9 -0.1
v 0.1 1.5 -0.1
v 0.1 1.6 -0.1
v 0.1 1.7 -0.1
v 0.1 1.8 -0.1
v 0.1 1.9 -0.1
v 0.2 0.3 -0.1
v 0.2 0.4 -0.1
v 0.2 0.5 -0.1
v 0.2 0.7 -0.1
v 0.2 0.8 -0.1
v 0.2 0.9 -0.1
v 0.2 1 -0.1
v 0.2 1.6 -0.1
v 0.2 1.7 -0.1
v 0.2 1.8 -0.1
v 0.2 1.9 -0.1
v 0.2 2 -0.1
v 0.3 0.4 -0.1
v 0.3 0.5 -0.1
v 0.3 0.6 -0.1
v 0.3 0.8 -0.1
v 0.3 0.9 -0.1
v 0.3 1 -0.1
v 0.3 1.2 -0.1
v 0.3 1.7 -0.1
v 0.3 1.9 -0.1
v 0.3 2 -0.1
v 0.4 0.5 -0.1
v 0.4 0.6 -0.1
v 0.4 0.7 -0.1
v 0.4 0.9 -0.1
v 0.4 1 -0.1
v 0.4 1.1 -0.1
v 0.4 1.2 -0.1
v 0.4 1.3 -0.1
v 0.4 1.8 -0.1
v 0.4 1.9 -0.1
v 0.4 2 -0.1
v 0.5 0.6 -0.1
v 0.5 0.7 -0.1
v 0.5 0.8 -0.1
v 0.5 1 -0.1
v 0.5 1.1 -0.1
v 0.5 1.2 -0.1
v 0.5 1.3 -0.1
v 0.5 1.4 -0.1
v 0.5 1.8 -0.1
v 0.5 1.9 -0.1
v 0.5 2 -0.1
v 0.6 0.7 -0.1
v 0.6 0.8 -0.1
v 0.6 0.9 -0.1
v 0.6 1 -0.1
v 0.6 1.1 -0.1
v 0.6 1.2 -0.1
v 0.6 1.7 -0.1
v 0.6 1.8 -0.1
v 0.6 1.9 -0.1
v 0.7 0.8 -0.1
v 0.7 0.9 -0.1
v 0.7 1 -0.1
v 0.7 1.1 -0.1
v 0.7 1.2 -0.1
v 0.7 1.4 -0.1
v 0.7 1.6 -0.1
v 0.7 1.7 -0.1
v 0.7 1.8 -0.1
v 0.8 0.9 -0.1
v 0.8 1 -0.1
v 0.8 1.1 -0.1
v 0.8 1.3 -0.1
v 0.8 1.4 -0.1
v 0.8 1.5 -0.1
v 0.8 1.6 -0.1
v 0.8 1.7 -0.1
v 0.9 1 -0.1
v 0.9 1.1 -0.1
v 0.9 1.2 -0.1
v 0.9 1.3 -0.1
v 0.9 1.4 -0.1
v 0.9 1.5 -0.1
v 0.9 1.6 -0.1
v 1 1.1 -0.1
v 1 1.2 -0.1
v 1 1.4 -0.1
v 1 1.5 -0.1
v -0.5 0 0
v -0.1 0 0
v -0.5 0 -0.1
v -0.1 0 -0.1
v -0.6 0.1 0
v -0.5 0.1 0
v -0.1 0.1 0
v 0 0.1 0
v -0.6 0.1 -0.1
v -0.5 0.1 -0.1
v -0.1 0.1 -0.1
v 0 0.1 -0.1
v -0.7 0.2 0
v -0.6 0.2 0
v 0 0.2 0
v 0.1 0.2 0
v -0.7 0.2 -0.1
v -0.6 0.2 -0.1
v 0 0.2 -0.1
v 0.1 0.2 -0.1
v -0.8 0.3 0
v -0.7 0.3 0
v 0.1 0.3 0
v 0.2 0.3 0
v -0.8 0.3 -0.1
v -0.7 0.3 -0.1
v 0.1 0.3 -0.1
v 0.2 0.3 -0.1
v -0.9 0.4 0
v -0.8 0.4 0
v 0.2 0.4 0
v 0.3 0.4 0
v -0.9 0.4 -0.1
v -0.8 0.4 -0.1
v 0.2 0.4 -0.1
v 0.3 0.4 -0.1
v -1 0.5 0
v -0.9 0.5 0
v 0.3 0.5 0
v 0.4 0.5 0
v -1 0.5 -0.1
v -0.9 0.5 -0.1
v 0.3 0.5 -0.1
v 0.4 0.5 -0.1
v 0.4 0.6 0
v 0.5 0.6 0
v 0.4 0.6 -0.1
v 0.5 0.6 -0.1
v 0.5 0.7 0
v 0.6 0.7 0
v 0.5 0.7 -0.1
v 0.6 0.7 -0.1
v 0.6 0.8 0
v 0.7 0.8 0
v 0.6 0.8 -0.1
v 0.7 0.8 -0.1
v 0.7 0.9 0
v 0.8 0.9 0
v 0.7 0.9 -0.1
v 0.8 0.9 -0.1
v 0.8 1 0
v 0.9 1 0
v 0.8 1 -0.1
v 0.9 1 -0.1
v 0.9 1.1 0
v 1 1.1 0
v 0.9 1.1 -0.1
v 1 1.1 -0.1
v -1 0.8 0
v -0.9 0.8 0
v -1 0.8 -0.1
v -0.9 0.8 -0.1
v -0.9 0.9 0
v -0.8 0.9 0
v -0.9 0.9 -0.1
v -0.8 0.9 -0.1
v -0.8 1 0
v -0.7 1 0
v -0.8 1 -0.1
v -0.7 1 -0.1
v -0.7 1.1 0
v -0.6 1.1 0
v -0.7 1.1 -0.1
v -0.6 1.1 -0.1
v -0.6 1.2 0
v -0.5 1.2 0
v -0.6 1.2 -0.1
v -0.5 1.2 -0.1
v -0.5 1.3 0
v -0.4 1.3 0
v -0.5 1.3 -0.1
v -0.4 1.3 -0.1
v -0.4 1.4 0
v -0.3 1.4 0
v -0.4 1.4 -0.1
v -0.3 1.4 -0.1
v -0.3 1.5 0
v -0.2 1.5 0
v 0.9 1.5 0
v 1 1.5 0
v -0.3 1.5 -0.1
v -0.2 1.5 -0.1
v 0.9 1.5 -0.1
v 1 1.5 -0.1
v -0.2 1.6 0
v -0.1 1.6 0
v 0.8 1.6 0
v 0.9 1.6 0
v -0.2 1.6 -0.1
v -0.1 1.6 -0.1
v 0.8 1.6 -0.1
v 0.9 1.6 -0.1
v -0.1 1.7 0
v 0 1.7 0
v 0.7 1.7 0
v 0.8 1.7 0
v -0.1 1.7 -0.1
v 0 1.7 -0.1
v 0.7 1.7 -0.1
v 0.8 1.7 -0.1
v 0 1.8 0
v 0.1 1.8 0
v 0.6 1.8 0
v 0.7 1.8 0
v 0 1.8 -0.1
v 0.1 1.8 -0.1
v 0.6 1.8 -0.1
v 0.7 1.8 -0.1
v 0.1 1.9 0
v 0.2 1.9 0
v 0.5 1.9 0
v 0.6 1.9 0
v 0.1 1.9 -0.1
v 0.2 1.9 -0.1
v 0.5 1.9 -0.1
v 0.6 1.9 -0.1
v 0.2 2 0
v 0.3 2 0
v 0.4 2 0
v 0.5 2 0
v 0.2 2 -0.1
v 0.3 2 -0.1
v 0.4 2 -0.1
v 0.5 2 -0.1

# faces
f 3/5/1 2/5/1 1/5/1
f 4/5/1 2/5/1 3/5/1
f 5/3/1 4/3/1 3/3/1
f 6/3/1 4/3/1 5/3/1
f 7/5/1 6/5/1 5/5/1
f 8/5/1 6/5/1 7/5/1
f 11/5/1 10/5/1 9/5/1
f 12/5/1 10/5/1 11/5/1
f 15/5/1 14/5/1 13/5/1
f 16/5/1 14/5/1 15/5/1
f 19/4/1 18/4/1 17/4/1
f 20/4/1 18/4/1 19/4/1
f 23/5/1 22/5/1 21/5/1
f 24/5/1 22/5/1 23/5/1
f 27/5/1 26/5/1 25/5/1
f 28/5/1 26/5/1 27/5/1
f 31/5/1 30/5/1 29/5/1
f 32/5/1 30/5/1 31/5/1
f 35/5/1 34/5/1 33/5/1
f 36/5/1 34/5/1 35/5/1
f 39/5/1 38/5/1 37/5/1
f 40/5/1 38/5/1 39/5/1
f 43/5/1 42/5/1 41/5/1
f 44/5/1 42/5/1 43/5/1
f 47/5/1 46/5/1 45/5/1
f 48/5/1 46/5/1 47/5/1
f 51/5/1 50/5/1 49/5/1
f 52/5/1 50/5/1 51/5/1
f 55/5/1 54/5/1 53/5/1
f 56/5/1 54/5/1 55/5/1
f 59/5/1 58/5/1 57/5/1
f 60/5/1 58/5/1 59/5/1
f 63/5/1 62/5/1 61/5/1
f 64/5/1 62/5/1 63/5/1
f 67/5/1 66/5/1 65/5/1
f 68/5/1 66/5/1 67/5/1
f 71/5/1 70/5/1 69/5/1
f 72/5/1 70/5/1 71/5/1
f 75/5/1 74/5/1 73/5/1
f 76/5/1 74/5/1 75/5/1
f 77/5/2 78/5/2 79/5/2
f 79/5/2 78/5/2 80/5/2
f 81/5/2 82/5/2 83/5/2
f 83/5/2 82/5/2 84/5/2
f 85/5/2 86/5/2 87/5/2
f 87/5/2 86/5/2 88/5/2
f 89/5/2 90/5/2 91/5/2
f 91/5/2 90/5/2 92/5/2
f 93/5/2 94/5/2 95/5/2
f 95/5/2 94/5/2 96/5/2
f 97/5/2 98/5/2 99/5/2
f 99/5/2 98/5/2 100/5/2
f 101/5/2 102/5/2 103/5/2
f 103/5/2 102/5/2 104/5/2
f 105/5/2 106/5/2 107/5/2
f 107/5/2 106/5/2 108/5/2
f 109/5/2 110/5/2 111/5/2
f 111/5/2 110/5/2 112/5/2
f 113/5/2 114/5/2 115/5/2
f 115/5/2 114/5/2 116/5/2
f 117/5/2 118/5/2 119/5/2
f 119/5/2 118/5/2 120/5/2
f 121/5/2 122/5/2 123/5/2
f 123/5/2 122/5/2 124/5/2
f 125/5/2 126/5/2 127/5/2
f 127/5/2 126/5/2 128/5/2
f 129/5/2 130/5/2 131/5/2
f 131/5/2 130/5/2 132/5/2
f 133/5/2 134/5/2 135/5/2
f 135/5/2 134/5/2 136/5/2
f 137/5/2 138/5/2 139/5/2
f 139/5/2 138/5/2 140/5/2
f 141/5/2 142/5/2 143/5/2
f 143/5/2 142/5/2 144/5/2
f 143/4/2 144/4/2 145/4/2
f 145/4/2 144/4/2 146/4/2
f 145/5/2 146/5/2 147/5/2
f 147/5/2 146/5/2 148/5/2
f 154/5/3 150/5/3 149/5/3
f 155/3/3 151/3/3 150/3/3
f 155/5/3 150/5/3 154/5/3
f 156/5/3 152/5/3 151/5/3
f 156/3/3 151/3/3 155/3/3
f 157/5/3 152/5/3 156/5/3
f 160/5/3 154/5/3 153/5/3
f 161/3/3 155/3/3 154/3/3
f 161/5/3 154/5/3 160/5/3
f 162/1/3 156/1/3 155/1/3
f 162/3/3 155/3/3 161/3/3
f 162/1/3 157/1/3 156/1/3
f 163/5/3 158/5/3 157/5/3
f 163/1/3 157/1/3 162/1/3
f 164/5/3 158/5/3 163/5/3
f 167/4/3 160/4/3 159/4/3
f 167/4/3 161/4/3 160/4/3
f 168/4/3 161/4/3 167/4/3
f 169/1/3 162/1/3 161/1/3
f 169/4/3 161/4/3 168/4/3
f 170/2/3 163/2/3 162/2/3
f 170/1/3 162/1/3 169/1/3
f 171/5/3 165/5/3 164/5/3
f 171/1/3 164/1/3 163/1/3
f 172/5/3 165/5/3 171/5/3
f 175/5/3 167/5/3 166/5/3
f 176/4/3 168/4/3 167/4/3
f 176/5/3 167/5/3 175/5/3
f 177/2/3 163/2/3 170/2/3
f 177/2/3 170/2/3 169/2/3
f 178/1/3 171/1/3 163/1/3
f 178/2/3 163/2/3 177/2/3
f 178/1/3 172/1/3 171/1/3
f 179/5/3 173/5/3 172/5/3
f 179/1/3 172/1/3 178/1/3
f 180/5/3 173/5/3 179/5/3
f 183/5/3 175/5/3 174/5/3
f 184/4/3 176/4/3 175/4/3
f 184/5/3 175/5/3 183/5/3
f 185/2/3 177/2/3 169/2/3
f 186/1/3 178/1/3 177/1/3
f 186/2/3 177/2/3 185/2/3
f 186/1/3 179/1/3 178/1/3
f 186/1/3 180/1/3 179/1/3
f 187/5/3 181/5/3 180/5/3
f 187/1/3 180/1/3 186/1/3
f 188/5/3 181/5/3 187/5/3
f 190/4/3 176/4/3 184/4/3
f 190/3/3 184/3/3 183/3/3
f 191/4/3 168/4/3 176/4/3
f 191/4/3 176/4/3 190/4/3
f 192/1/3 169/1/3 168/1/3
f 192/4/3 168/4/3 191/4/3
f 193/2/3 185/2/3 169/2/3
f 193/1/3 169/1/3 192/1/3
f 194/1/3 186/1/3 185/1/3
f 194/5/3 189/5/3 188/5/3
f 194/1/3 188/1/3 187/1/3
f 194/1/3 187/1/3 186/1/3
f 195/5/3 189/5/3 194/5/3
f 197/1/3 195/1/3 194/1/3
f 197/5/3 196/5/3 195/5/3
f 198/5/3 196/5/3 197/5/3
f 200/3/3 191/3/3 190/3/3
f 200/1/3 192/1/3 191/1/3
f 201/2/3 193/2/3 192/2/3
f 201/1/3 192/1/3 200/1/3
f 202/2/3 185/2/3 193/2/3
f 202/2/3 193/2/3 201/2/3
f 203/1/3 198/1/3 197/1/3
f 203/2/3 185/2/3 202/2/3
f 203/1/3 194/1/3 185/1/3
f 203/1/3 197/1/3 194/1/3
f 204/1/3 198/1/3 203/1/3
f 205/1/3 198/1/3 204/1/3
f 206/5/3 199/5/3 198/5/3
f 206/1/3 198/1/3 205/1/3
f 207/5/3 199/5/3 206/5/3
f 209/5/3 183/5/3 182/5/3
f 210/3/3 190/3/3 183/3/3
f 210/5/3 183/5/3 209/5/3
f 210/3/3 201/3/3 200/3/3
f 210/3/3 200/3/3 190/3/3
f 211/3/3 201/3/3 210/3/3
f 212/1/3 202/1/3 201/1/3
f 212/3/3 201/3/3 211/3/3
f 213/2/3 203/2/3 202/2/3
f 213/1/3 202/1/3 212/1/3
f 213/2/3 204/2/3 203/2/3
f 214/2/3 204/2/3 213/2/3
f 215/1/3 205/1/3 204/1/3
f 215/2/3 204/2/3 214/2/3
f 216/1/3 205/1/3 215/1/3
f 217/2/3 207/2/3 206/2/3
f 217/1/3 205/1/3 216/1/3
f 217/2/3 206/2/3 205/2/3
f 218/2/3 207/2/3 217/2/3
f 219/5/3 208/5/3 207/5/3
f 219/2/3 207/2/3 218/2/3
f 220/5/3 208/5/3 219/5/3
f 222/5/3 211/5/3 210/5/3
f 223/3/3 212/3/3 211/3/3
f 223/5/3 211/5/3 222/5/3
f 223/3/3 213/3/3 212/3/3
f 224/3/3 213/3/3 223/3/3
f 225/1/3 214/1/3 213/1/3
f 225/3/3 213/3/3 224/3/3
f 226/2/3 216/2/3 215/2/3
f 226/1/3 214/1/3 225/1/3
f 226/2/3 215/2/3 214/2/3
f 227/2/3 216/2/3 226/2/3
f 228/1/3 218/1/3 217/1/3
f 228/2/3 220/2/3 219/2/3
f 228/2/3 219/2/3 218/2/3
f 228/1/3 217/1/3 216/1/3
f 229/2/3 220/2/3 228/2/3
f 230/5/3 221/5/3 220/5/3
f 230/2/3 220/2/3 229/2/3
f 231/5/3 221/5/3 230/5/3
f 233/5/3 224/5/3 223/5/3
f 234/3/3 225/3/3 224/3/3
f 234/5/3 224/5/3 233/5/3
f 234/3/3 226/3/3 225/3/3
f 235/3/3 226/3/3 234/3/3
f 236/1/3 227/1/3 226/1/3
f 236/3/3 226/3/3 235/3/3
f 237/2/3 216/2/3 227/2/3
f 237/1/3 227/1/3 236/1/3
f 238/1/3 229/1/3 228/1/3
f 238/2/3 216/2/3 237/2/3
f 238/1/3 228/1/3 216/1/3
f 239/1/3 229/1/3 238/1/3
f 240/2/3 231/2/3 230/2/3
f 240/1/3 229/1/3 239/1/3
f 240/2/3 230/2/3 229/2/3
f 241/2/3 231/2/3 240/2/3
f 242/5/3 232/5/3 231/5/3
f 242/2/3 231/2/3 241/2/3
f 243/5/3 232/5/3 242/5/3
f 245/5/3 235/5/3 234/5/3
f 246/3/3 236/3/3 235/3/3
f 246/5/3 235/5/3 245/5/3
f 246/3/3 237/3/3 236/3/3
f 247/3/3 237/3/3 246/3/3
f 248/1/3 238/1/3 237/1/3
f 248/3/3 237/3/3 247/3/3
f 249/2/3 239/2/3 238/2/3
f 249/1/3 238/1/3 248/1/3
f 250/1/3 241/1/3 240/1/3
f 250/2/3 239/2/3 249/2/3
f 250/1/3 240/1/3 239/1/3
f 251/1/3 241/1/3 250/1/3
f 252/2/3 242/2/3 241/2/3
f 252/1/3 241/1/3 251/1/3
f 252/2/3 243/2/3 242/2/3
f 253/2/3 243/2/3 252/2/3
f 254/5/3 244/5/3 243/5/3
f 254/2/3 243/2/3 253/2/3
f 255/5/3 244/5/3 254/5/3
f 257/5/3 247/5/3 246/5/3
f 258/3/3 249/3/3 248/3/3
f 258/5/3 247/5/3 257/5/3
f 258/3/3 248/3/3 247/3/3
f 259/3/3 249/3/3 258/3/3
f 260/1/3 250/1/3 249/1/3
f 260/3/3 249/3/3 259/3/3
f 261/2/3 251/2/3 250/2/3
f 261/1/3 250/1/3 260/1/3
f 262/1/3 253/1/3 252/1/3
f 262/2/3 251/2/3 261/2/3
f 262/1/3 252/1/3 251/1/3
f 263/1/3 253/1/3 262/1/3
f 264/2/3 254/2/3 253/2/3
f 264/1/3 253/1/3 263/1/3
f 264/2/3 255/2/3 254/2/3
f 265/5/3 256/5/3 255/5/3
f 265/2/3 255/2/3 264/2/3
f 266/5/3 256/5/3 265/5/3
f 267/5/3 259/5/3 258/5/3
f 268/3/3 260/3/3 259/3/3
f 268/5/3 259/5/3 267/5/3
f 268/3/3 261/3/3 260/3/3
f 269/3/3 261/3/3 268/3/3
f 270/1/3 262/1/3 261/1/3
f 270/3/3 261/3/3 269/3/3
f 271/2/3 263/2/3 262/2/3
f 271/1/3 262/1/3 270/1/3
f 272/2/3 263/2/3 271/2/3
f 273/1/3 265/1/3 264/1/3
f 273/2/3 263/2/3 272/2/3
f 273/1/3 264/1/3 263/1/3
f 274/1/3 265/1/3 273/1/3
f 275/1/3 265/1/3 274/1/3
f 276/4/3 266/4/3 265/4/3
f 276/1/3 265/1/3 275/1/3
f 277/4/3 266/4/3 276/4/3
f 278/5/3 269/5/3 268/5/3
f 279/3/3 270/3/3 269/3/3
f 279/5/3 269/5/3 278/5/3
f 279/3/3 271/3/3 270/3/3
f 280/3/3 271/3/3 279/3/3
f 281/1/3 272/1/3 271/1/3
f 281/3/3 271/3/3 280/3/3
f 282/2/3 273/2/3 272/2/3
f 282/1/3 272/1/3 281/1/3
f 282/2/3 274/2/3 273/2/3
f 283/2/3 274/2/3 282/2/3
f 284/1/3 275/1/3 274/1/3
f 284/2/3 274/2/3 283/2/3
f 285/1/3 275/1/3 284/1/3
f 286/4/3 276/4/3 275/4/3
f 286/1/3 275/1/3 285/1/3
f 287/5/3 277/5/3 276/5/3
f 287/4/3 276/4/3 286/4/3
f 288/5/3 277/5/3 287/5/3
f 289/5/3 280/5/3 279/5/3
f 290/3/3 281/3/3 280/3/3
f 290/5/3 280/5/3 289/5/3
f 290/3/3 282/3/3 281/3/3
f 291/3/3 282/3/3 290/3/3
f 292/3/3 282/3/3 291/3/3
f 293/1/3 283/1/3 282/1/3
f 293/3/3 282/3/3 292/3/3
f 294/2/3 285/2/3 284/2/3
f 294/1/3 283/1/3 293/1/3
f 294/2/3 284/2/3 283/2/3
f 295/1/3 286/1/3 285/1/3
f 296/5/3 287/5/3 286/5/3
f 296/1/3 286/1/3 295/1/3
f 297/5/3 287/5/3 296/5/3
f 298/5/3 291/5/3 290/5/3
f 299/3/3 292/3/3 291/3/3
f 299/5/3 291/5/3 298/5/3
f 300/4/3 293/4/3 292/4/3
f 300/3/3 292/3/3 299/3/3
f 300/4/3 294/4/3 293/4/3
f 301/4/3 294/4/3 300/4/3
f 302/2/3 285/2/3 294/2/3
f 302/4/3 294/4/3 301/4/3
f 303/1/3 295/1/3 285/1/3
f 303/2/3 285/2/3 302/2/3
f 304/1/3 295/1/3 303/1/3
f 305/5/3 296/5/3 295/5/3
f 305/1/3 295/1/3 304/1/3
f 306/5/3 296/5/3 305/5/3
f 307/5/3 300/5/3 299/5/3
f 308/3/3 301/3/3 300/3/3
f 308/5/3 300/5/3 307/5/3
f 309/4/3 302/4/3 301/4/3
f 309/3/3 301/3/3 308/3/3
f 309/4/3 303/4/3 302/4/3
f 310/4/3 303/4/3 309/4/3
f 311/1/3 304/1/3 303/1/3
f 311/4/3 303/4/3 310/4/3
f 312/1/3 304/1/3 311/1/3
f 313/5/3 305/5/3 304/5/3
f 313/1/3 304/1/3 312/1/3
f 314/5/3 305/5/3 313/5/3
f 315/5/3 309/5/3 308/5/3
f 316/3/3 310/3/3 309/3/3
f 316/5/3 309/5/3 315/5/3
f 317/3/3 310/3/3 316/3/3
f 318/4/3 312/4/3 311/4/3
f 318/3/3 310/3/3 317/3/3
f 318/4/3 311/4/3 310/4/3
f 319/4/3 312/4/3 318/4/3
f 320/5/3 313/5/3 312/5/3
f 320/4/3 312/4/3 319/4/3
f 321/5/3 313/5/3 320/5/3
f 322/5/3 317/5/3 316/5/3
f 323/4/3 319/4/3 318/4/3
f 323/5/3 317/5/3 322/5/3
f 323/4/3 318/4/3 317/4/3
f 324/5/3 320/5/3 319/5/3
f 324/4/3 319/4/3 323/4/3
f 325/5/3 320/5/3 324/5/3
f 326/5/4 327/5/4 331/5/4
f 327/3/4 328/3/4 332/3/4
f 331/5/4 327/5/4 332/5/4
f 328/5/4 329/5/4 333/5/4
f 332/3/4 328/3/4 333/3/4
f 333/5/4 329/5/4 334/5/4
f 330/5/4 331/5/4 337/5/4
f 331/3/4 332/3/4 338/3/4
f 337/5/4 331/5/4 338/5/4
f 332/1/4 333/1/4 339/1/4
f 338/3/4 332/3/4 339/3/4
f 333/1/4 334/1/4 339/1/4
f 334/5/4 335/5/4 340/5/4
f 339/1/4 334/1/4 340/1/4
f 340/5/4 335/5/4 341/5/4
f 336/4/4 337/4/4 344/4/4
f 337/4/4 338/4/4 344/4/4
f 344/4/4 338/4/4 345/4/4
f 338/1/4 339/1/4 346/1/4
f 345/4/4 338/4/4 346/4/4
f 339/2/4 340/2/4 347/2/4
f 346/1/4 339/1/4 347/1/4
f 341/5/4 342/5/4 348/5/4
f 340/1/4 341/1/4 348/1/4
f 348/5/4 342/5/4 349/5/4
f 343/5/4 344/5/4 352/5/4
f 344/4/4 345/4/4 353/4/4
f 352/5/4 344/5/4 353/5/4
f 347/2/4 340/2/4 354/2/4
f 346/2/4 347/2/4 354/2/4
f 340/1/4 348/1/4 355/1/4
f 354/2/4 340/2/4 355/2/4
f 348/1/4 349/1/4 355/1/4
f 349/5/4 350/5/4 356/5/4
f 355/1/4 349/1/4 356/1/4
f 356/5/4 350/5/4 357/5/4
f 351/5/4 352/5/4 360/5/4
f 352/4/4 353/4/4 361/4/4
f 360/5/4 352/5/4 361/5/4
f 346/2/4 354/2/4 362/2/4
f 354/1/4 355/1/4 363/1/4
f 362/2/4 354/2/4 363/2/4
f 355/1/4 356/1/4 363/1/4
f 356/1/4 357/1/4 363/1/4
f 357/5/4 358/5/4 364/5/4
f 363/1/4 357/1/4 364/1/4
f 364/5/4 358/5/4 365/5/4
f 361/4/4 353/4/4 367/4/4
f 360/3/4 361/3/4 367/3/4
f 353/4/4 345/4/4 368/4/4
f 367/4/4 353/4/4 368/4/4
f 345/1/4 346/1/4 369/1/4
f 368/4/4 345/4/4 369/4/4
f 346/2/4 362/2/4 370/2/4
f 369/1/4 346/1/4 370/1/4
f 362/1/4 363/1/4 371/1/4
f 365/5/4 366/5/4 371/5/4
f 364/1/4 365/1/4 371/1/4
f 363/1/4 364/1/4 371/1/4
f 371/5/4 366/5/4 372/5/4
f 371/1/4 372/1/4 374/1/4
f 372/5/4 373/5/4 374/5/4
f 374/5/4 373/5/4 375/5/4
f 367/3/4 368/3/4 377/3/4
f 368/1/4 369/1/4 377/1/4
f 369/2/4 370/2/4 378/2/4
f 377/1/4 369/1/4 378/1/4
f 370/2/4 362/2/4 379/2/4
f 378/2/4 370/2/4 379/2/4
f 374/1/4 375/1/4 380/1/4
f 379/2/4 362/2/4 380/2/4
f 362/1/4 371/1/4 380/1/4
f 371/1/4 374/1/4 380/1/4
f 380/1/4 375/1/4 381/1/4
f 381/1/4 375/1/4 382/1/4
f 375/5/4 376/5/4 383/5/4
f 382/1/4 375/1/4 383/1/4
f 383/5/4 376/5/4 384/5/4
f 359/5/4 360/5/4 386/5/4
f 360/3/4 367/3/4 387/3/4
f 386/5/4 360/5/4 387/5/4
f 377/3/4 378/3/4 387/3/4
f 367/3/4 377/3/4 387/3/4
f 387/3/4 378/3/4 388/3/4
f 378/1/4 379/1/4 389/1/4
f 388/3/4 378/3/4 389/3/4
f 379/2/4 380/2/4 390/2/4
f 389/1/4 379/1/4 390/1/4
f 380/2/4 381/2/4 390/2/4
f 390/2/4 381/2/4 391/2/4
f 381/1/4 382/1/4 392/1/4
f 391/2/4 381/2/4 392/2/4
f 392/1/4 382/1/4 393/1/4
f 383/2/4 384/2/4 394/2/4
f 393/1/4 382/1/4 394/1/4
f 382/2/4 383/2/4 394/2/4
f 394/2/4 384/2/4 395/2/4
f 384/5/4 385/5/4 396/5/4
f 395/2/4 384/2/4 396/2/4
f 396/5/4 385/5/4 397/5/4
f 387/5/4 388/5/4 399/5/4
f 388/3/4 389/3/4 400/3/4
f 399/5/4 388/5/4 400/5/4
f 389/3/4 390/3/4 400/3/4
f 400/3/4 390/3/4 401/3/4
f 390/1/4 391/1/4 402/1/4
f 401/3/4 390/3/4 402/3/4
f 392/2/4 393/2/4 403/2/4
f 402/1/4 391/1/4 403/1/4
f 391/2/4 392/2/4 403/2/4
f 403/2/4 393/2/4 404/2/4
f 394/1/4 395/1/4 405/1/4
f 396/2/4 397/2/4 405/2/4
f 395/2/4 396/2/4 405/2/4
f 393/1/4 394/1/4 405/1/4
f 405/2/4 397/2/4 406/2/4
f 397/5/4 398/5/4 407/5/4
f 406/2/4 397/2/4 407/2/4
f 407/5/4 398/5/4 408/5/4
f 400/5/4 401/5/4 410/5/4
f 401/3/4 402/3/4 411/3/4
f 410/5/4 401/5/4 411/5/4
f 402/3/4 403/3/4 411/3/4
f 411/3/4 403/3/4 412/3/4
f 403/1/4 404/1/4 413/1/4
f 412/3/4 403/3/4 413/3/4
f 404/2/4 393/2/4 414/2/4
f 413/1/4 404/1/4 414/1/4
f 405/1/4 406/1/4 415/1/4
f 414/2/4 393/2/4 415/2/4
f 393/1/4 405/1/4 415/1/4
f 415/1/4 406/1/4 416/1/4
f 407/2/4 408/2/4 417/2/4
f 416/1/4 406/1/4 417/1/4
f 406/2/4 407/2/4 417/2/4
f 417/2/4 408/2/4 418/2/4
f 408/5/4 409/5/4 419/5/4
f 418/2/4 408/2/4 419/2/4
f 419/5/4 409/5/4 420/5/4
f 411/5/4 412/5/4 422/5/4
f 412/3/4 413/3/4 423/3/4
f 422/5/4 412/5/4 423/5/4
f 413/3/4 414/3/4 423/3/4
f 423/3/4 414/3/4 424/3/4
f 414/1/4 415/1/4 425/1/4
f 424/3/4 414/3/4 425/3/4
f 415/2/4 416/2/4 426/2/4
f 425/1/4 415/1/4 426/1/4
f 417/1/4 418/1/4 427/1/4
f 426/2/4 416/2/4 427/2/4
f 416/1/4 417/1/4 427/1/4
f 427/1/4 418/1/4 428/1/4
f 418/2/4 419/2/4 429/2/4
f 428/1/4 418/1/4 429/1/4
f 419/2/4 420/2/4 429/2/4
f 429/2/4 420/2/4 430/2/4
f 420/5/4 421/5/4 431/5/4
f 430/2/4 420/2/4 431/2/4
f 431/5/4 421/5/4 432/5/4
f 423/5/4 424/5/4 434/5/4
f 425/3/4 426/3/4 435/3/4
f 434/5/4 424/5/4 435/5/4
f 424/3/4 425/3/4 435/3/4
f 435/3/4 426/3/4 436/3/4
f 426/1/4 427/1/4 437/1/4
f 436/3/4 426/3/4 437/3/4
f 427/2/4 428/2/4 438/2/4
f 437/1/4 427/1/4 438/1/4
f 429/1/4 430/1/4 439/1/4
f 438/2/4 428/2/4 439/2/4
f 428/1/4 429/1/4 439/1/4
f 439/1/4 430/1/4 440/1/4
f 430/2/4 431/2/4 441/2/4
f 440/1/4 430/1/4 441/1/4
f 431/2/4 432/2/4 441/2/4
f 432/5/4 433/5/4 442/5/4
f 441/2/4 432/2/4 442/2/4
f 442/5/4 433/5/4 443/5/4
f 435/5/4 436/5/4 444/5/4
f 436/3/4 437/3/4 445/3/4
f 444/5/4 436/5/4 445/5/4
f 437/3/4 438/3/4 445/3/4
f 445/3/4 438/3/4 446/3/4
f 438/1/4 439/1/4 447/1/4
f 446/3/4 438/3/4 447/3/4
f 439/2/4 440/2/4 448/2/4
f 447/1/4 439/1/4 448/1/4
f 448/2/4 440/2/4 449/2/4
f 441/1/4 442/1/4 450/1/4
f 449/2/4 440/2/4 450/2/4
f 440/1/4 441/1/4 450/1/4
f 450/1/4 442/1/4 451/1/4
f 451/1/4 442/1/4 452/1/4
f 442/4/4 443/4/4 453/4/4
f 452/1/4 442/1/4 453/1/4
f 453/4/4 443/4/4 454/4/4
f 445/5/4 446/5/4 455/5/4
f 446/3/4 447/3/4 456/3/4
f 455/5/4 446/5/4 456/5/4
f 447/3/4 448/3/4 456/3/4
f 456/3/4 448/3/4 457/3/4
f 448/1/4 449/1/4 458/1/4
f 457/3/4 448/3/4 458/3/4
f 449/2/4 450/2/4 459/2/4
f 458/1/4 449/1/4 459/1/4
f 450/2/4 451/2/4 459/2/4
f 459/2/4 451/2/4 460/2/4
f 451/1/4 452/1/4 461/1/4
f 460/2/4 451/2/4 461/2/4
f 461/1/4 452/1/4 462/1/4
f 452/4/4 453/4/4 463/4/4
f 462/1/4 452/1/4 463/1/4
f 453/5/4 454/5/4 464/5/4
f 463/4/4 453/4/4 464/4/4
f 464/5/4 454/5/4 465/5/4
f 456/5/4 457/5/4 466/5/4
f 457/3/4 458/3/4 467/3/4
f 466/5/4 457/5/4 467/5/4
f 458/3/4 459/3/4 467/3/4
f 467/3/4 459/3/4 468/3/4
f 468/3/4 459/3/4 469/3/4
f 459/1/4 460/1/4 470/1/4
f 469/3/4 459/3/4 470/3/4
f 461/2/4 462/2/4 471/2/4
f 470/1/4 460/1/4 471/1/4
f 460/2/4 461/2/4 471/2/4
f 462/1/4 463/1/4 472/1/4
f 463/5/4 464/5/4 473/5/4
f 472/1/4 463/1/4 473/1/4
f 473/5/4 464/5/4 474/5/4
f 467/5/4 468/5/4 475/5/4
f 468/3/4 469/3/4 476/3/4
f 475/5/4 468/5/4 476/5/4
f 469/4/4 470/4/4 477/4/4
f 476/3/4 469/3/4 477/3/4
f 470/4/4 471/4/4 477/4/4
f 477/4/4 471/4/4 478/4/4
f 471/2/4 462/2/4 479/2/4
f 478/4/4 471/4/4 479/4/4
f 462/1/4 472/1/4 480/1/4
f 479/2/4 462/2/4 480/2/4
f 480/1/4 472/1/4 481/1/4
f 472/5/4 473/5/4 482/5/4
f 481/1/4 472/1/4 482/1/4
f 482/5/4 473/5/4 483/5/4
f 476/5/4 477/5/4 484/5/4
f 477/3/4 478/3/4 485/3/4
f 484/5/4 477/5/4 485/5/4
f 478/4/4 479/4/4 486/4/4
f 485/3/4 478/3/4 486/3/4
f 479/4/4 480/4/4 486/4/4
f 486/4/4 480/4/4 487/4/4
f 480/1/4 481/1/4 488/1/4
f 487/4/4 480/4/4 488/4/4
f 488/1/4 481/1/4 489/1/4
f 481/5/4 482/5/4 490/5/4
f 489/1/4 481/1/4 490/1/4
f 490/5/4 482/5/4 491/5/4
f 485/5/4 486/5/4 492/5/4
f 486/3/4 487/3/4 493/3/4
f 492/5/4 486/5/4 493/5/4
f 493/3/4 487/3/4 494/3/4
f 488/4/4 489/4/4 495/4/4
f 494/3/4 487/3/4 495/3/4
f 487/4/4 488/4/4 495/4/4
f 495/4/4 489/4/4 496/4/4
f 489/5/4 490/5/4 497/5/4
f 496/4/4 489/4/4 497/4/4
f 497/5/4 490/5/4 498/5/4
f 493/5/4 494/5/4 499/5/4
f 495/4/4 496/4/4 500/4/4
f 499/5/4 494/5/4 500/5/4
f 494/4/4 495/4/4 500/4/4
f 496/5/4 497/5/4 501/5/4
f 500/4/4 496/4/4 501/4/4
f 501/5/4 497/5/4 502/5/4
f 505/5/5 504/5/5 503/5/5
f 506/5/5 504/5/5 505/5/5
f 511/5/5 508/5/5 507/5/5
f 512/5/5 508/5/5 511/5/5
f 513/5/5 510/5/5 509/5/5
f 514/5/5 510/5/5 513/5/5
f 519/5/5 516/5/5 515/5/5
f 520/5/5 516/5/5 519/5/5
f 521/5/5 518/5/5 517/5/5
f 522/5/5 518/5/5 521/5/5
f 527/4/5 524/4/5 523/4/5
f 528/4/5 524/4/5 527/4/5
f 529/5/5 526/5/5 525/5/5
f 530/5/5 526/5/5 529/5/5
f 535/5/5 532/5/5 531/5/5
f 536/5/5 532/5/5 535/5/5
f 537/5/5 534/5/5 533/5/5
f 538/5/5 534/5/5 537/5/5
f 543/5/5 540/5/5 539/5/5
f 544/5/5 540/5/5 543/5/5
f 545/5/5 542/5/5 541/5/5
f 546/5/5 542/5/5 545/5/5
f 549/5/5 548/5/5 547/5/5
f 550/5/5 548/5/5 549/5/5
f 553/5/5 552/5/5 551/5/5
f 554/5/5 552/5/5 553/5/5
f 557/5/5 556/5/5 555/5/5
f 558/5/5 556/5/5 557/5/5
f 561/5/5 560/5/5 559/5/5
f 562/5/5 560/5/5 561/5/5
f 565/5/5 564/5/5 563/5/5
f 566/5/5 564/5/5 565/5/5
f 569/5/5 568/5/5 567/5/5
f 570/5/5 568/5/5 569/5/5
f 571/5/6 572/5/6 573/5/6
f 573/5/6 572/5/6 574/5/6
f 575/5/6 576/5/6 577/5/6
f 577/5/6 576/5/6 578/5/6
f 579/5/6 580/5/6 581/5/6
f 581/5/6 580/5/6 582/5/6
f 583/5/6 584/5/6 585/5/6
f 585/5/6 584/5/6 586/5/6
f 587/5/6 588/5/6 589/5/6
f 589/5/6 588/5/6 590/5/6
f 591/5/6 592/5/6 593/5/6
f 593/5/6 592/5/6 594/5/6
f 595/5/6 596/5/6 597/5/6
f 597/5/6 596/5/6 598/5/6
f 599/5/6 600/5/6 603/5/6
f 603/5/6 600/5/6 604/5/6
f 601/5/6 602/5/6 605/5/6
f 605/5/6 602/5/6 606/5/6
f 607/5/6 608/5/6 611/5/6
f 611/5/6 608/5/6 612/5/6
f 609/5/6 610/5/6 613/5/6
f 613/5/6 610/5/6 614/5/6
f 615/5/6 616/5/6 619/5/6
f 619/5/6 616/5/6 620/5/6
f 617/5/6 618/5/6 621/5/6
f 621/5/6 618/5/6 622/5/6
f 623/5/6 624/5/6 627/5/6
f 627/5/6 624/5/6 628/5/6
f 625/5/6 626/5/6 629/5/6
f 629/5/6 626/5/6 630/5/6
f 631/5/6 632/5/6 635/5/6
f 635/5/6 632/5/6 636/5/6
f 633/5/6 634/5/6 637/5/6
f 637/5/6 634/5/6 638/5/6
f 639/5/6 640/5/6 643/5/6
f 640/4/6 641/4/6 644/4/6
f 643/5/6 640/5/6 644/5/6
f 641/5/6 642/5/6 645/5/6
f 644/4/6 641/4/6 645/4/6
f 645/5/6 642/5/6 646/5/6
