# MagicaVoxel @ Ephtracy

# group
o 

# material
mtllib Lighter.mtl
usemtl palette

# normals
vn -1 0 0
vn 1 0 0
vn 0 0 1
vn 0 0 -1
vn 0 -1 0
vn 0 1 0

# texcoords
vt 0.310547 0.5
vt 0.455078 0.5
vt 0.501953 0.5
vt 0.505859 0.5
vt 0.533203 0.5
vt 0.591797 0.5

# verts
v -0.9 0.8 0
v -0.9 0.8 -0.1
v -0.9 1.4 0
v -0.9 1.4 -0.1
v -0.8 0.7 0
v -0.8 0.7 -0.1
v -0.8 0.8 0
v -0.8 0.8 -0.1
v -0.8 1.4 0
v -0.8 1.4 -0.1
v -0.8 1.6 0
v -0.8 1.6 -0.1
v -0.7 1.6 0
v -0.7 1.6 -0.1
v -0.7 1.8 0
v -0.7 1.8 -0.1
v -0.6 0.6 0
v -0.6 0.6 -0.1
v -0.6 0.7 0
v -0.6 0.7 -0.1
v -0.5 1.8 0
v -0.5 1.8 -0.1
v -0.5 1.9 0
v -0.5 1.9 -0.1
v -0.2 0.2 0
v -0.2 0.2 -0.1
v -0.2 0.5 0
v -0.2 0.5 -0.1
v -0.2 1.4 0
v -0.2 1.4 -0.1
v -0.2 1.5 0
v -0.2 1.5 -0.1
v -0.1 0.1 0
v -0.1 0.1 -0.1
v -0.1 0.2 0
v -0.1 0.2 -0.1
v -0.1 0.5 0
v -0.1 0.5 -0.1
v -0.1 0.7 0
v -0.1 0.7 -0.1
v 0 0.7 0
v 0 0.7 -0.1
v 0 0.8 0
v 0 0.8 -0.1
v 0.1 0.8 0
v 0.1 0.8 -0.1
v 0.1 0.9 0
v 0.1 0.9 -0.1
v 0.2 0.9 0
v 0.2 0.9 -0.1
v 0.2 1 0
v 0.2 1 -0.1
v 0.3 1 0
v 0.3 1 -0.1
v 0.3 1.1 0
v 0.3 1.1 -0.1
v -0.6 1 0
v -0.6 1 -0.1
v -0.6 1.3 0
v -0.6 1.3 -0.1
v -0.5 0.9 0
v -0.5 0.9 -0.1
v -0.5 1 0
v -0.5 1 -0.1
v -0.5 1.3 0
v -0.5 1.3 -0.1
v -0.5 1.5 0
v -0.5 1.5 -0.1
v -0.2 0.6 0
v -0.2 0.6 -0.1
v -0.2 0.9 0
v -0.2 0.9 -0.1
v -0.2 1.8 0
v -0.2 1.8 -0.1
v -0.2 1.9 0
v -0.2 1.9 -0.1
v 0 1.7 0
v 0 1.7 -0.1
v 0 1.8 0
v 0 1.8 -0.1
v 0.1 1.4 0
v 0.1 1.4 -0.1
v 0.1 1.7 0
v 0.1 1.7 -0.1
v 0.7 0.1 0
v 0.7 0.1 -0.1
v 0.7 0.2 0
v 0.7 0.2 -0.1
v 0.9 0.2 0
v 0.9 0.2 -0.1
v 0.9 1.1 0
v 0.9 1.1 -0.1
v -0.9 0.8 0
v -0.9 1.4 0
v -0.8 0.7 0
v -0.8 0.8 0
v -0.8 1.2 0
v -0.8 1.4 0
v -0.8 1.6 0
v -0.7 0.9 0
v -0.7 1 0
v -0.7 1.2 0
v -0.7 1.3 0
v -0.7 1.4 0
v -0.7 1.6 0
v -0.7 1.8 0
v -0.6 0.6 0
v -0.6 0.7 0
v -0.6 0.8 0
v -0.6 0.9 0
v -0.6 1 0
v -0.6 1.3 0
v -0.6 1.4 0
v -0.6 1.5 0
v -0.6 1.6 0
v -0.6 1.7 0
v -0.5 0.7 0
v -0.5 0.8 0
v -0.5 0.9 0
v -0.5 1 0
v -0.5 1.3 0
v -0.5 1.5 0
v -0.5 1.6 0
v -0.5 1.7 0
v -0.5 1.8 0
v -0.5 1.9 0
v -0.4 0.7 0
v -0.4 0.8 0
v -0.3 0.7 0
v -0.3 0.8 0
v -0.3 1.6 0
v -0.3 1.7 0
v -0.2 0.2 0
v -0.2 0.5 0
v -0.2 0.6 0
v -0.2 0.9 0
v -0.2 1.4 0
v -0.2 1.5 0
v -0.2 1.6 0
v -0.2 1.7 0
v -0.2 1.8 0
v -0.2 1.9 0
v -0.1 0.1 0
v -0.1 0.2 0
v -0.1 0.3 0
v -0.1 0.5 0
v -0.1 0.7 0
v 0 0.3 0
v 0 0.4 0
v 0 0.5 0
v 0 0.7 0
v 0 0.8 0
v 0 1.5 0
v 0 1.6 0
v 0 1.7 0
v 0 1.8 0
v 0.1 0.1 0
v 0.1 0.2 0
v 0.1 0.3 0
v 0.1 0.4 0
v 0.1 0.5 0
v 0.1 0.7 0
v 0.1 0.8 0
v 0.1 0.9 0
v 0.1 1.4 0
v 0.1 1.7 0
v 0.2 0.1 0
v 0.2 0.2 0
v 0.2 0.8 0
v 0.2 0.9 0
v 0.2 1 0
v 0.3 0.2 0
v 0.3 0.3 0
v 0.3 0.4 0
v 0.3 0.5 0
v 0.3 0.7 0
v 0.3 0.9 0
v 0.3 1 0
v 0.3 1.1 0
v 0.4 0.2 0
v 0.4 0.3 0
v 0.4 0.8 0
v 0.4 0.9 0
v 0.5 0.3 0
v 0.5 0.4 0
v 0.5 0.5 0
v 0.5 0.6 0
v 0.5 0.7 0
v 0.5 0.8 0
v 0.5 0.9 0
v 0.5 1 0
v 0.6 0.3 0
v 0.6 0.4 0
v 0.6 0.5 0
v 0.6 0.6 0
v 0.6 0.7 0
v 0.7 0.1 0
v 0.7 0.2 0
v 0.7 0.3 0
v 0.7 0.7 0
v 0.7 1 0
v 0.8 0.3 0
v 0.8 1 0
v 0.9 0.2 0
v 0.9 1.1 0
v -0.9 0.8 -0.1
v -0.9 1.4 -0.1
v -0.8 0.7 -0.1
v -0.8 0.8 -0.1
v -0.8 1.2 -0.1
v -0.8 1.4 -0.1
v -0.8 1.6 -0.1
v -0.7 0.9 -0.1
v -0.7 1 -0.1
v -0.7 1.2 -0.1
v -0.7 1.3 -0.1
v -0.7 1.4 -0.1
v -0.7 1.6 -0.1
v -0.7 1.8 -0.1
v -0.6 0.6 -0.1
v -0.6 0.7 -0.1
v -0.6 0.8 -0.1
v -0.6 0.9 -0.1
v -0.6 1 -0.1
v -0.6 1.3 -0.1
v -0.6 1.4 -0.1
v -0.6 1.5 -0.1
v -0.6 1.6 -0.1
v -0.6 1.7 -0.1
v -0.5 0.7 -0.1
v -0.5 0.8 -0.1
v -0.5 0.9 -0.1
v -0.5 1 -0.1
v -0.5 1.3 -0.1
v -0.5 1.5 -0.1
v -0.5 1.6 -0.1
v -0.5 1.7 -0.1
v -0.5 1.8 -0.1
v -0.5 1.9 -0.1
v -0.4 0.7 -0.1
v -0.4 0.8 -0.1
v -0.3 0.7 -0.1
v -0.3 0.8 -0.1
v -0.3 1.6 -0.1
v -0.3 1.7 -0.1
v -0.2 0.2 -0.1
v -0.2 0.5 -0.1
v -0.2 0.6 -0.1
v -0.2 0.9 -0.1
v -0.2 1.4 -0.1
v -0.2 1.5 -0.1
v -0.2 1.6 -0.1
v -0.2 1.7 -0.1
v -0.2 1.8 -0.1
v -0.2 1.9 -0.1
v -0.1 0.1 -0.1
v -0.1 0.2 -0.1
v -0.1 0.3 -0.1
v -0.1 0.5 -0.1
v -0.1 0.7 -0.1
v 0 0.3 -0.1
v 0 0.4 -0.1
v 0 0.5 -0.1
v 0 0.7 -0.1
v 0 0.8 -0.1
v 0 1.5 -0.1
v 0 1.6 -0.1
v 0 1.7 -0.1
v 0 1.8 -0.1
v 0.1 0.1 -0.1
v 0.1 0.2 -0.1
v 0.1 0.3 -0.1
v 0.1 0.4 -0.1
v 0.1 0.5 -0.1
v 0.1 0.7 -0.1
v 0.1 0.8 -0.1
v 0.1 0.9 -0.1
v 0.1 1.4 -0.1
v 0.1 1.7 -0.1
v 0.2 0.1 -0.1
v 0.2 0.2 -0.1
v 0.2 0.8 -0.1
v 0.2 0.9 -0.1
v 0.2 1 -0.1
v 0.3 0.2 -0.1
v 0.3 0.3 -0.1
v 0.3 0.4 -0.1
v 0.3 0.5 -0.1
v 0.3 0.7 -0.1
v 0.3 0.9 -0.1
v 0.3 1 -0.1
v 0.3 1.1 -0.1
v 0.4 0.2 -0.1
v 0.4 0.3 -0.1
v 0.4 0.8 -0.1
v 0.4 0.9 -0.1
v 0.5 0.3 -0.1
v 0.5 0.4 -0.1
v 0.5 0.5 -0.1
v 0.5 0.6 -0.1
v 0.5 0.7 -0.1
v 0.5 0.8 -0.1
v 0.5 0.9 -0.1
v 0.5 1 -0.1
v 0.6 0.3 -0.1
v 0.6 0.4 -0.1
v 0.6 0.5 -0.1
v 0.6 0.6 -0.1
v 0.6 0.7 -0.1
v 0.7 0.1 -0.1
v 0.7 0.2 -0.1
v 0.7 0.3 -0.1
v 0.7 0.7 -0.1
v 0.7 1 -0.1
v 0.8 0.3 -0.1
v 0.8 1 -0.1
v 0.9 0.2 -0.1
v 0.9 1.1 -0.1
v -0.1 0.1 0
v 0.1 0.1 0
v 0.2 0.1 0
v 0.7 0.1 0
v -0.1 0.1 -0.1
v 0.1 0.1 -0.1
v 0.2 0.1 -0.1
v 0.7 0.1 -0.1
v -0.2 0.2 0
v -0.1 0.2 0
v 0.7 0.2 0
v 0.9 0.2 0
v -0.2 0.2 -0.1
v -0.1 0.2 -0.1
v 0.7 0.2 -0.1
v 0.9 0.2 -0.1
v -0.6 0.6 0
v -0.2 0.6 0
v -0.6 0.6 -0.1
v -0.2 0.6 -0.1
v -0.8 0.7 0
v -0.6 0.7 0
v -0.8 0.7 -0.1
v -0.6 0.7 -0.1
v -0.9 0.8 0
v -0.8 0.8 0
v -0.9 0.8 -0.1
v -0.8 0.8 -0.1
v -0.6 1.3 0
v -0.5 1.3 0
v -0.6 1.3 -0.1
v -0.5 1.3 -0.1
v -0.2 1.4 0
v 0.1 1.4 0
v -0.2 1.4 -0.1
v 0.1 1.4 -0.1
v -0.5 1.5 0
v -0.2 1.5 0
v -0.5 1.5 -0.1
v -0.2 1.5 -0.1
v -0.2 0.5 0
v -0.1 0.5 0
v -0.2 0.5 -0.1
v -0.1 0.5 -0.1
v -0.1 0.7 0
v 0 0.7 0
v -0.1 0.7 -0.1
v 0 0.7 -0.1
v 0 0.8 0
v 0.1 0.8 0
v 0 0.8 -0.1
v 0.1 0.8 -0.1
v -0.5 0.9 0
v -0.2 0.9 0
v 0.1 0.9 0
v 0.2 0.9 0
v -0.5 0.9 -0.1
v -0.2 0.9 -0.1
v 0.1 0.9 -0.1
v 0.2 0.9 -0.1
v -0.6 1 0
v -0.5 1 0
v 0.2 1 0
v 0.3 1 0
v -0.6 1 -0.1
v -0.5 1 -0.1
v 0.2 1 -0.1
v 0.3 1 -0.1
v 0.3 1.1 0
v 0.9 1.1 0
v 0.3 1.1 -0.1
v 0.9 1.1 -0.1
v -0.9 1.4 0
v -0.8 1.4 0
v -0.9 1.4 -0.1
v -0.8 1.4 -0.1
v -0.8 1.6 0
v -0.7 1.6 0
v -0.8 1.6 -0.1
v -0.7 1.6 -0.1
v 0 1.7 0
v 0.1 1.7 0
v 0 1.7 -0.1
v 0.1 1.7 -0.1
v -0.7 1.8 0
v -0.5 1.8 0
v -0.2 1.8 0
v 0 1.8 0
v -0.7 1.8 -0.1
v -0.5 1.8 -0.1
v -0.2 1.8 -0.1
v 0 1.8 -0.1
v -0.5 1.9 0
v -0.2 1.9 0
v -0.5 1.9 -0.1
v -0.2 1.9 -0.1

# faces
f 3/6/1 2/6/1 1/6/1
f 4/6/1 2/6/1 3/6/1
f 7/6/1 6/6/1 5/6/1
f 8/6/1 6/6/1 7/6/1
f 11/6/1 10/6/1 9/6/1
f 12/6/1 10/6/1 11/6/1
f 15/6/1 14/6/1 13/6/1
f 16/6/1 14/6/1 15/6/1
f 19/6/1 18/6/1 17/6/1
f 20/6/1 18/6/1 19/6/1
f 23/6/1 22/6/1 21/6/1
f 24/6/1 22/6/1 23/6/1
f 27/6/1 26/6/1 25/6/1
f 28/6/1 26/6/1 27/6/1
f 31/6/1 30/6/1 29/6/1
f 32/6/1 30/6/1 31/6/1
f 35/6/1 34/6/1 33/6/1
f 36/6/1 34/6/1 35/6/1
f 39/6/1 38/6/1 37/6/1
f 40/6/1 38/6/1 39/6/1
f 43/6/1 42/6/1 41/6/1
f 44/6/1 42/6/1 43/6/1
f 47/6/1 46/6/1 45/6/1
f 48/6/1 46/6/1 47/6/1
f 51/6/1 50/6/1 49/6/1
f 52/6/1 50/6/1 51/6/1
f 55/6/1 54/6/1 53/6/1
f 56/6/1 54/6/1 55/6/1
f 57/6/2 58/6/2 59/6/2
f 59/6/2 58/6/2 60/6/2
f 61/6/2 62/6/2 63/6/2
f 63/6/2 62/6/2 64/6/2
f 65/6/2 66/6/2 67/6/2
f 67/6/2 66/6/2 68/6/2
f 69/6/2 70/6/2 71/6/2
f 71/6/2 70/6/2 72/6/2
f 73/6/2 74/6/2 75/6/2
f 75/6/2 74/6/2 76/6/2
f 77/6/2 78/6/2 79/6/2
f 79/6/2 78/6/2 80/6/2
f 81/6/2 82/6/2 83/6/2
f 83/6/2 82/6/2 84/6/2
f 85/6/2 86/6/2 87/6/2
f 87/6/2 86/6/2 88/6/2
f 89/6/2 90/6/2 91/6/2
f 91/6/2 90/6/2 92/6/2
f 96/6/3 94/6/3 93/6/3
f 97/6/3 94/6/3 96/6/3
f 98/6/3 94/6/3 97/6/3
f 100/1/3 97/1/3 96/1/3
f 101/1/3 97/1/3 100/1/3
f 102/2/3 98/2/3 97/2/3
f 102/1/3 97/1/3 101/1/3
f 103/2/3 98/2/3 102/2/3
f 104/6/3 99/6/3 98/6/3
f 104/2/3 98/2/3 103/2/3
f 105/6/3 99/6/3 104/6/3
f 108/6/3 96/6/3 95/6/3
f 109/1/3 100/1/3 96/1/3
f 109/6/3 96/6/3 108/6/3
f 110/2/3 101/2/3 100/2/3
f 110/1/3 100/1/3 109/1/3
f 111/6/3 103/6/3 102/6/3
f 111/2/3 101/2/3 110/2/3
f 111/6/3 102/6/3 101/6/3
f 112/1/3 104/1/3 103/1/3
f 112/6/3 103/6/3 111/6/3
f 113/2/3 105/2/3 104/2/3
f 113/1/3 104/1/3 112/1/3
f 114/2/3 105/2/3 113/2/3
f 115/6/3 106/6/3 105/6/3
f 115/2/3 105/2/3 114/2/3
f 116/6/3 106/6/3 115/6/3
f 117/1/3 109/1/3 108/1/3
f 117/6/3 108/6/3 107/6/3
f 118/2/3 110/2/3 109/2/3
f 118/1/3 109/1/3 117/1/3
f 119/6/3 111/6/3 110/6/3
f 119/2/3 110/2/3 118/2/3
f 120/6/3 111/6/3 119/6/3
f 121/6/3 114/6/3 113/6/3
f 121/6/3 113/6/3 112/6/3
f 122/1/3 115/1/3 114/1/3
f 122/6/3 114/6/3 121/6/3
f 123/2/3 116/2/3 115/2/3
f 123/1/3 115/1/3 122/1/3
f 124/6/3 106/6/3 116/6/3
f 124/2/3 116/2/3 123/2/3
f 125/6/3 106/6/3 124/6/3
f 127/6/3 117/6/3 107/6/3
f 127/2/3 118/2/3 117/2/3
f 128/6/3 119/6/3 118/6/3
f 128/2/3 118/2/3 127/2/3
f 129/6/3 127/6/3 107/6/3
f 129/1/3 128/1/3 127/1/3
f 130/6/3 119/6/3 128/6/3
f 130/1/3 128/1/3 129/1/3
f 131/6/3 123/6/3 122/6/3
f 131/1/3 124/1/3 123/1/3
f 132/2/3 125/2/3 124/2/3
f 132/1/3 124/1/3 131/1/3
f 135/6/3 130/6/3 129/6/3
f 135/6/3 129/6/3 107/6/3
f 136/6/3 119/6/3 130/6/3
f 136/6/3 130/6/3 135/6/3
f 138/6/3 131/6/3 122/6/3
f 139/2/3 132/2/3 131/2/3
f 139/6/3 131/6/3 138/6/3
f 140/2/3 125/2/3 132/2/3
f 140/2/3 132/2/3 139/2/3
f 141/6/3 126/6/3 125/6/3
f 141/2/3 125/2/3 140/2/3
f 142/6/3 126/6/3 141/6/3
f 144/6/3 134/6/3 133/6/3
f 145/6/3 134/6/3 144/6/3
f 146/6/3 134/6/3 145/6/3
f 148/5/3 145/5/3 144/5/3
f 148/3/3 146/3/3 145/3/3
f 149/3/3 146/3/3 148/3/3
f 150/6/3 147/6/3 146/6/3
f 150/3/3 146/3/3 149/3/3
f 151/6/3 147/6/3 150/6/3
f 153/1/3 139/1/3 138/1/3
f 153/6/3 138/6/3 137/6/3
f 154/2/3 140/2/3 139/2/3
f 154/1/3 139/1/3 153/1/3
f 155/6/3 141/6/3 140/6/3
f 155/2/3 140/2/3 154/2/3
f 156/6/3 141/6/3 155/6/3
f 157/6/3 144/6/3 143/6/3
f 158/5/3 149/5/3 148/5/3
f 158/6/3 144/6/3 157/6/3
f 158/5/3 148/5/3 144/5/3
f 159/5/3 149/5/3 158/5/3
f 160/3/3 151/3/3 150/3/3
f 160/5/3 149/5/3 159/5/3
f 160/3/3 150/3/3 149/3/3
f 161/3/3 151/3/3 160/3/3
f 162/6/3 152/6/3 151/6/3
f 162/3/3 151/3/3 161/3/3
f 163/6/3 152/6/3 162/6/3
f 165/6/3 153/6/3 137/6/3
f 165/6/3 154/6/3 153/6/3
f 165/6/3 155/6/3 154/6/3
f 166/6/3 155/6/3 165/6/3
f 167/4/3 159/4/3 158/4/3
f 167/4/3 158/4/3 157/4/3
f 168/4/3 159/4/3 167/4/3
f 169/6/3 164/6/3 163/6/3
f 169/3/3 163/3/3 162/3/3
f 169/3/3 162/3/3 161/3/3
f 170/6/3 164/6/3 169/6/3
f 172/4/3 159/4/3 168/4/3
f 172/6/3 168/6/3 167/6/3
f 173/5/3 161/5/3 160/5/3
f 173/4/3 159/4/3 172/4/3
f 173/5/3 160/5/3 159/5/3
f 174/5/3 161/5/3 173/5/3
f 175/3/3 170/3/3 169/3/3
f 175/5/3 161/5/3 174/5/3
f 175/3/3 169/3/3 161/3/3
f 176/3/3 170/3/3 175/3/3
f 177/6/3 171/6/3 170/6/3
f 177/3/3 170/3/3 176/3/3
f 178/6/3 171/6/3 177/6/3
f 180/6/3 172/6/3 167/6/3
f 180/5/3 173/5/3 172/5/3
f 181/4/3 174/4/3 173/4/3
f 181/5/3 173/5/3 180/5/3
f 182/3/3 178/3/3 177/3/3
f 182/3/3 177/3/3 176/3/3
f 183/3/3 178/3/3 182/3/3
f 184/4/3 174/4/3 181/4/3
f 184/4/3 181/4/3 180/4/3
f 185/5/3 176/5/3 175/5/3
f 185/4/3 174/4/3 184/4/3
f 185/5/3 175/5/3 174/5/3
f 186/5/3 176/5/3 185/5/3
f 187/5/3 176/5/3 186/5/3
f 188/3/3 182/3/3 176/3/3
f 188/5/3 176/5/3 187/5/3
f 189/5/3 183/5/3 182/5/3
f 189/3/3 182/3/3 188/3/3
f 190/3/3 178/3/3 183/3/3
f 190/5/3 183/5/3 189/5/3
f 191/6/3 179/6/3 178/6/3
f 191/3/3 178/3/3 190/3/3
f 192/4/3 184/4/3 180/4/3
f 192/5/3 185/5/3 184/5/3
f 193/4/3 186/4/3 185/4/3
f 193/5/3 185/5/3 192/5/3
f 194/3/3 187/3/3 186/3/3
f 194/4/3 186/4/3 193/4/3
f 195/5/3 190/5/3 189/5/3
f 195/3/3 187/3/3 194/3/3
f 195/5/3 189/5/3 188/5/3
f 195/5/3 188/5/3 187/5/3
f 195/5/3 191/5/3 190/5/3
f 196/5/3 191/5/3 195/5/3
f 197/6/3 180/6/3 167/6/3
f 198/4/3 194/4/3 193/4/3
f 198/6/3 180/6/3 197/6/3
f 198/4/3 192/4/3 180/4/3
f 198/4/3 196/4/3 195/4/3
f 198/4/3 195/4/3 194/4/3
f 198/4/3 193/4/3 192/4/3
f 199/4/3 196/4/3 198/4/3
f 200/5/3 191/5/3 196/5/3
f 200/4/3 196/4/3 199/4/3
f 201/6/3 179/6/3 191/6/3
f 201/5/3 191/5/3 200/5/3
f 202/4/3 200/4/3 199/4/3
f 202/6/3 199/6/3 198/6/3
f 202/4/3 201/4/3 200/4/3
f 203/6/3 179/6/3 201/6/3
f 203/4/3 201/4/3 202/4/3
f 204/6/3 202/6/3 198/6/3
f 204/6/3 203/6/3 202/6/3
f 205/6/3 179/6/3 203/6/3
f 205/6/3 203/6/3 204/6/3
f 206/6/4 207/6/4 209/6/4
f 209/6/4 207/6/4 210/6/4
f 210/6/4 207/6/4 211/6/4
f 209/1/4 210/1/4 213/1/4
f 213/1/4 210/1/4 214/1/4
f 210/2/4 211/2/4 215/2/4
f 214/1/4 210/1/4 215/1/4
f 215/2/4 211/2/4 216/2/4
f 211/6/4 212/6/4 217/6/4
f 216/2/4 211/2/4 217/2/4
f 217/6/4 212/6/4 218/6/4
f 208/6/4 209/6/4 221/6/4
f 209/1/4 213/1/4 222/1/4
f 221/6/4 209/6/4 222/6/4
f 213/2/4 214/2/4 223/2/4
f 222/1/4 213/1/4 223/1/4
f 215/6/4 216/6/4 224/6/4
f 223/2/4 214/2/4 224/2/4
f 214/6/4 215/6/4 224/6/4
f 216/1/4 217/1/4 225/1/4
f 224/6/4 216/6/4 225/6/4
f 217/2/4 218/2/4 226/2/4
f 225/1/4 217/1/4 226/1/4
f 226/2/4 218/2/4 227/2/4
f 218/6/4 219/6/4 228/6/4
f 227/2/4 218/2/4 228/2/4
f 228/6/4 219/6/4 229/6/4
f 221/1/4 222/1/4 230/1/4
f 220/6/4 221/6/4 230/6/4
f 222/2/4 223/2/4 231/2/4
f 230/1/4 222/1/4 231/1/4
f 223/6/4 224/6/4 232/6/4
f 231/2/4 223/2/4 232/2/4
f 232/6/4 224/6/4 233/6/4
f 226/6/4 227/6/4 234/6/4
f 225/6/4 226/6/4 234/6/4
f 227/1/4 228/1/4 235/1/4
f 234/6/4 227/6/4 235/6/4
f 228/2/4 229/2/4 236/2/4
f 235/1/4 228/1/4 236/1/4
f 229/6/4 219/6/4 237/6/4
f 236/2/4 229/2/4 237/2/4
f 237/6/4 219/6/4 238/6/4
f 220/6/4 230/6/4 240/6/4
f 230/2/4 231/2/4 240/2/4
f 231/6/4 232/6/4 241/6/4
f 240/2/4 231/2/4 241/2/4
f 220/6/4 240/6/4 242/6/4
f 240/1/4 241/1/4 242/1/4
f 241/6/4 232/6/4 243/6/4
f 242/1/4 241/1/4 243/1/4
f 235/6/4 236/6/4 244/6/4
f 236/1/4 237/1/4 244/1/4
f 237/2/4 238/2/4 245/2/4
f 244/1/4 237/1/4 245/1/4
f 242/6/4 243/6/4 248/6/4
f 220/6/4 242/6/4 248/6/4
f 243/6/4 232/6/4 249/6/4
f 248/6/4 243/6/4 249/6/4
f 235/6/4 244/6/4 251/6/4
f 244/2/4 245/2/4 252/2/4
f 251/6/4 244/6/4 252/6/4
f 245/2/4 238/2/4 253/2/4
f 252/2/4 245/2/4 253/2/4
f 238/6/4 239/6/4 254/6/4
f 253/2/4 238/2/4 254/2/4
f 254/6/4 239/6/4 255/6/4
f 246/6/4 247/6/4 257/6/4
f 257/6/4 247/6/4 258/6/4
f 258/6/4 247/6/4 259/6/4
f 257/5/4 258/5/4 261/5/4
f 258/3/4 259/3/4 261/3/4
f 261/3/4 259/3/4 262/3/4
f 259/6/4 260/6/4 263/6/4
f 262/3/4 259/3/4 263/3/4
f 263/6/4 260/6/4 264/6/4
f 251/1/4 252/1/4 266/1/4
f 250/6/4 251/6/4 266/6/4
f 252/2/4 253/2/4 267/2/4
f 266/1/4 252/1/4 267/1/4
f 253/6/4 254/6/4 268/6/4
f 267/2/4 253/2/4 268/2/4
f 268/6/4 254/6/4 269/6/4
f 256/6/4 257/6/4 270/6/4
f 261/5/4 262/5/4 271/5/4
f 270/6/4 257/6/4 271/6/4
f 257/5/4 261/5/4 271/5/4
f 271/5/4 262/5/4 272/5/4
f 263/3/4 264/3/4 273/3/4
f 272/5/4 262/5/4 273/5/4
f 262/3/4 263/3/4 273/3/4
f 273/3/4 264/3/4 274/3/4
f 264/6/4 265/6/4 275/6/4
f 274/3/4 264/3/4 275/3/4
f 275/6/4 265/6/4 276/6/4
f 250/6/4 266/6/4 278/6/4
f 266/6/4 267/6/4 278/6/4
f 267/6/4 268/6/4 278/6/4
f 278/6/4 268/6/4 279/6/4
f 271/4/4 272/4/4 280/4/4
f 270/4/4 271/4/4 280/4/4
f 280/4/4 272/4/4 281/4/4
f 276/6/4 277/6/4 282/6/4
f 275/3/4 276/3/4 282/3/4
f 274/3/4 275/3/4 282/3/4
f 282/6/4 277/6/4 283/6/4
f 281/4/4 272/4/4 285/4/4
f 280/6/4 281/6/4 285/6/4
f 273/5/4 274/5/4 286/5/4
f 285/4/4 272/4/4 286/4/4
f 272/5/4 273/5/4 286/5/4
f 286/5/4 274/5/4 287/5/4
f 282/3/4 283/3/4 288/3/4
f 287/5/4 274/5/4 288/5/4
f 274/3/4 282/3/4 288/3/4
f 288/3/4 283/3/4 289/3/4
f 283/6/4 284/6/4 290/6/4
f 289/3/4 283/3/4 290/3/4
f 290/6/4 284/6/4 291/6/4
f 280/6/4 285/6/4 293/6/4
f 285/5/4 286/5/4 293/5/4
f 286/4/4 287/4/4 294/4/4
f 293/5/4 286/5/4 294/5/4
f 290/3/4 291/3/4 295/3/4
f 289/3/4 290/3/4 295/3/4
f 295/3/4 291/3/4 296/3/4
f 294/4/4 287/4/4 297/4/4
f 293/4/4 294/4/4 297/4/4
f 288/5/4 289/5/4 298/5/4
f 297/4/4 287/4/4 298/4/4
f 287/5/4 288/5/4 298/5/4
f 298/5/4 289/5/4 299/5/4
f 299/5/4 289/5/4 300/5/4
f 289/3/4 295/3/4 301/3/4
f 300/5/4 289/5/4 301/5/4
f 295/5/4 296/5/4 302/5/4
f 301/3/4 295/3/4 302/3/4
f 296/3/4 291/3/4 303/3/4
f 302/5/4 296/5/4 303/5/4
f 291/6/4 292/6/4 304/6/4
f 303/3/4 291/3/4 304/3/4
f 293/4/4 297/4/4 305/4/4
f 297/5/4 298/5/4 305/5/4
f 298/4/4 299/4/4 306/4/4
f 305/5/4 298/5/4 306/5/4
f 299/3/4 300/3/4 307/3/4
f 306/4/4 299/4/4 307/4/4
f 302/5/4 303/5/4 308/5/4
f 307/3/4 300/3/4 308/3/4
f 301/5/4 302/5/4 308/5/4
f 300/5/4 301/5/4 308/5/4
f 303/5/4 304/5/4 308/5/4
f 308/5/4 304/5/4 309/5/4
f 280/6/4 293/6/4 310/6/4
f 306/4/4 307/4/4 311/4/4
f 310/6/4 293/6/4 311/6/4
f 293/4/4 305/4/4 311/4/4
f 308/4/4 309/4/4 311/4/4
f 307/4/4 308/4/4 311/4/4
f 305/4/4 306/4/4 311/4/4
f 311/4/4 309/4/4 312/4/4
f 309/5/4 304/5/4 313/5/4
f 312/4/4 309/4/4 313/4/4
f 304/6/4 292/6/4 314/6/4
f 313/5/4 304/5/4 314/5/4
f 312/4/4 313/4/4 315/4/4
f 311/6/4 312/6/4 315/6/4
f 313/4/4 314/4/4 315/4/4
f 314/6/4 292/6/4 316/6/4
f 315/4/4 314/4/4 316/4/4
f 311/6/4 315/6/4 317/6/4
f 315/6/4 316/6/4 317/6/4
f 316/6/4 292/6/4 318/6/4
f 317/6/4 316/6/4 318/6/4
f 323/6/5 320/6/5 319/6/5
f 324/4/5 321/4/5 320/4/5
f 324/6/5 320/6/5 323/6/5
f 325/6/5 322/6/5 321/6/5
f 325/4/5 321/4/5 324/4/5
f 326/6/5 322/6/5 325/6/5
f 331/6/5 328/6/5 327/6/5
f 332/6/5 328/6/5 331/6/5
f 333/6/5 330/6/5 329/6/5
f 334/6/5 330/6/5 333/6/5
f 337/6/5 336/6/5 335/6/5
f 338/6/5 336/6/5 337/6/5
f 341/6/5 340/6/5 339/6/5
f 342/6/5 340/6/5 341/6/5
f 345/6/5 344/6/5 343/6/5
f 346/6/5 344/6/5 345/6/5
f 349/6/5 348/6/5 347/6/5
f 350/6/5 348/6/5 349/6/5
f 353/6/5 352/6/5 351/6/5
f 354/6/5 352/6/5 353/6/5
f 357/6/5 356/6/5 355/6/5
f 358/6/5 356/6/5 357/6/5
f 359/6/6 360/6/6 361/6/6
f 361/6/6 360/6/6 362/6/6
f 363/6/6 364/6/6 365/6/6
f 365/6/6 364/6/6 366/6/6
f 367/6/6 368/6/6 369/6/6
f 369/6/6 368/6/6 370/6/6
f 371/6/6 372/6/6 375/6/6
f 375/6/6 372/6/6 376/6/6
f 373/6/6 374/6/6 377/6/6
f 377/6/6 374/6/6 378/6/6
f 379/6/6 380/6/6 383/6/6
f 383/6/6 380/6/6 384/6/6
f 381/6/6 382/6/6 385/6/6
f 385/6/6 382/6/6 386/6/6
f 387/6/6 388/6/6 389/6/6
f 389/6/6 388/6/6 390/6/6
f 391/6/6 392/6/6 393/6/6
f 393/6/6 392/6/6 394/6/6
f 395/6/6 396/6/6 397/6/6
f 397/6/6 396/6/6 398/6/6
f 399/6/6 400/6/6 401/6/6
f 401/6/6 400/6/6 402/6/6
f 403/6/6 404/6/6 407/6/6
f 407/6/6 404/6/6 408/6/6
f 405/6/6 406/6/6 409/6/6
f 409/6/6 406/6/6 410/6/6
f 411/6/6 412/6/6 413/6/6
f 413/6/6 412/6/6 414/6/6
